<svg width="57" height="44" viewBox="0 0 57 44" fill="none" xmlns="http://www.w3.org/2000/svg">
<g clip-path="url(#clip0_2:23)">
<path d="M0 33.1922V29.9281C0.0436002 29.725 0.072667 29.5074 0.0872004 29.3043C0.188934 26.9542 0.465069 24.6185 0.901071 22.3119C2.16548 15.6967 4.81056 9.64722 8.47297 4.01846C8.61831 3.80086 8.82177 3.61227 9.06884 3.49621C12.5569 1.88592 16.2338 0.725354 19.998 0.0290138C20.3468 -0.0290145 20.5502 0.058028 20.7101 0.362677C21.0008 0.971975 21.3205 1.58127 21.6112 2.19057C22.0326 3.061 22.0181 3.01747 22.9628 2.94494C25.0556 2.78536 27.1484 2.59677 29.2557 2.59677C30.898 2.59677 32.5548 2.82888 34.1971 2.97395C34.9238 3.03198 34.9674 3.03198 35.2726 2.37916C35.5778 1.72634 35.912 1.08803 36.2027 0.435212C36.3771 0.0435209 36.6242 -0.0290145 37.0456 0.0435209C40.7662 0.725354 44.385 1.87141 47.8149 3.45269C48.1056 3.59776 48.3672 3.81536 48.5416 4.091C49.4717 5.61424 50.4309 7.12298 51.2738 8.70425C54.1514 14.1299 55.9972 19.9037 56.6512 26.0112C56.8547 27.8681 56.9564 29.725 57 31.5819C57.0291 33.0181 56.8547 34.4543 56.8111 35.8905C56.8111 36.3838 56.564 36.8335 56.1571 37.0946C53.5701 38.9515 50.8669 40.6053 47.9602 41.8965C46.3034 42.6218 44.603 43.2311 42.9026 43.8694C42.6265 43.971 42.2922 44.1306 42.0742 43.7534C41.1731 42.2737 40.2721 40.7939 39.371 39.3287C39.2111 39.0676 39.2838 38.8935 39.5744 38.7775C39.9523 38.6324 40.3302 38.4873 40.7081 38.2987C41.6527 37.8345 42.5829 37.3558 43.513 36.8625C43.9635 36.6304 43.9199 36.5724 43.5711 36.2097C43.1061 35.731 42.6846 35.7455 42.0742 36.0211C38.4118 37.6894 34.4732 38.6614 30.462 38.8935C25.0847 39.1982 19.7218 38.1972 14.8241 35.9776C14.2718 35.731 13.8939 35.7745 13.4725 36.1807C13.051 36.5869 13.0219 36.6449 13.5451 36.906C14.7369 37.5153 15.9431 38.0956 17.1639 38.6759C17.7889 38.966 17.8325 38.9806 17.4982 39.5463C16.7279 40.852 15.9431 42.1431 15.1438 43.4342C14.7369 44.087 14.7078 44.0725 13.9521 43.8259C9.22871 42.2737 4.78149 39.9815 0.77027 37.0366C0.406935 36.8045 0.203468 36.3983 0.203468 35.9631C0.159867 35.0491 0.072667 34.1207 0 33.1922ZM43.0334 24.1253C43.0479 23.0663 42.7863 22.0363 42.2922 21.1078C40.6209 18.0033 36.7404 17.4665 34.4151 20.0343C32.2932 22.3699 32.3949 26.3159 34.6186 28.5354C36.5806 30.4939 39.5309 30.4649 41.4347 28.4339C42.5393 27.2298 43.0189 25.7646 43.0334 24.1253ZM19.5038 18.395C17.847 18.395 16.7279 18.8447 15.8269 19.6861C13.3417 22.0073 13.3417 26.3014 15.8123 28.637C17.6145 30.3488 20.2305 30.4069 22.1198 28.7966C24.823 26.4754 24.794 21.7751 22.0472 19.4975C21.1897 18.7722 20.1869 18.395 19.5038 18.395Z" fill="black"/>
</g>
<defs>
<clipPath id="clip0_2:23">
<rect width="57" height="44" fill="white"/>
</clipPath>
</defs>
</svg>
