<?xml version="1.0" encoding="utf-8"?>
<!-- Generator: Adobe Illustrator 25.0.1, SVG Export Plug-In . SVG Version: 6.00 Build 0)  -->
<svg version="1.1" id="Layer_1" xmlns="http://www.w3.org/2000/svg" xmlns:xlink="http://www.w3.org/1999/xlink" x="0px" y="0px"
	 viewBox="0 0 638.4 472.1" style="enable-background:new 0 0 638.4 472.1;" xml:space="preserve">
<style type="text/css">
	.st0{clip-path:url(#SVGID_2_);}
	.st1{fill:#4E5560;}
	.st2{fill:#5C6673;}
	.st3{opacity:0.2;fill-rule:evenodd;clip-rule:evenodd;fill:#231F20;enable-background:new    ;}
	.st4{fill-rule:evenodd;clip-rule:evenodd;fill:#E5E8EC;}
	.st5{fill-rule:evenodd;clip-rule:evenodd;fill:#F4F7F9;}
	.st6{fill-rule:evenodd;clip-rule:evenodd;fill:#FFFFFF;}
	.st7{fill-rule:evenodd;clip-rule:evenodd;fill:#CACFD7;}
	.st8{fill-rule:evenodd;clip-rule:evenodd;fill:#FBDAAE;}
	.st9{fill-rule:evenodd;clip-rule:evenodd;fill:#E2BB8E;}
	.st10{fill-rule:evenodd;clip-rule:evenodd;fill:#151C29;}
	.st11{fill-rule:evenodd;clip-rule:evenodd;fill:#303B47;}
	.st12{fill-rule:evenodd;clip-rule:evenodd;fill:#FAE15F;}
	.st13{fill-rule:evenodd;clip-rule:evenodd;fill:#FAF074;}
	.st14{opacity:0.5;fill-rule:evenodd;clip-rule:evenodd;fill:#FFFFFF;enable-background:new    ;}
	.st15{fill-rule:evenodd;clip-rule:evenodd;fill:#F7986D;}
	.st16{fill-rule:evenodd;clip-rule:evenodd;fill:#5F5254;}
	.st17{fill-rule:evenodd;clip-rule:evenodd;fill:#6C5F5E;}
	.st18{fill-rule:evenodd;clip-rule:evenodd;fill:#966C45;}
	.st19{fill-rule:evenodd;clip-rule:evenodd;fill:#7C5738;}
	.st20{fill:#303B47;}
	.st21{fill-rule:evenodd;clip-rule:evenodd;fill:#F5C87A;}
	.st22{fill-rule:evenodd;clip-rule:evenodd;fill:#F47C48;}
	.st23{fill-rule:evenodd;clip-rule:evenodd;fill:#E688B8;}
	.st24{fill-rule:evenodd;clip-rule:evenodd;fill:#DD71A2;}
	.st25{fill-rule:evenodd;clip-rule:evenodd;fill:#EAA6CA;}
	.st26{fill-rule:evenodd;clip-rule:evenodd;fill:#51B8E2;}
	.st27{fill-rule:evenodd;clip-rule:evenodd;fill:#F5B833;}
	.st28{fill-rule:evenodd;clip-rule:evenodd;fill:#D93446;}
	.st29{fill-rule:evenodd;clip-rule:evenodd;fill:#0C171F;}
	.st30{fill-rule:evenodd;clip-rule:evenodd;fill:#F7C46C;}
	.st31{fill-rule:evenodd;clip-rule:evenodd;fill:#F39E39;}
	.st32{fill-rule:evenodd;clip-rule:evenodd;fill:#EC495C;}
	.st33{fill-rule:evenodd;clip-rule:evenodd;fill:#DA5D6A;}
	.st34{fill-rule:evenodd;clip-rule:evenodd;fill:#C84A56;}
	.st35{fill-rule:evenodd;clip-rule:evenodd;fill:#5C6673;}
	.st36{fill:#F1647D;}
	.st37{fill-rule:evenodd;clip-rule:evenodd;fill:#E3B58F;}
	.st38{fill:#DAAA85;}
	.st39{fill-rule:evenodd;clip-rule:evenodd;fill:#5F94CE;}
	.st40{fill:#C84A56;}
</style>
<g>
	<defs>
		<rect id="SVGID_1_" x="14" y="9.7" width="611" height="452"/>
	</defs>
	<clipPath id="SVGID_2_">
		<use xlink:href="#SVGID_1_"  style="overflow:visible;"/>
	</clipPath>
	<g class="st0">
		<path class="st1" d="M76.3,9.7h486.5c34.4,0,62.3,27.9,62.3,62.3v264.9c0,34.4-27.9,62.3-62.3,62.3H76.3
			c-34.4,0-62.3-27.9-62.3-62.4V72.1C14,37.6,41.9,9.7,76.3,9.7z"/>
		<path class="st2" d="M76.3,39.3h486.5c34.4,0,62.3,27.9,62.3,62.3v264.9c0,34.4-27.9,62.3-62.3,62.3H76.3
			c-34.4,0-62.3-27.9-62.3-62.4V101.6C14,67.2,41.9,39.3,76.3,39.3z"/>
		<path class="st3" d="M153.3,335.9c1.6,0.5,3,1.3,4.4,2.1l4.4-3.9c0.3-0.3,0.8-0.5,1.2-0.6c-0.2-0.1-0.5-0.3-0.7-0.5l-3,3
			c-0.4,0.4-1.1,0.4-1.5,0l-3.2-3.2c-0.4-0.4-0.4-1.1,0-1.5l3-3c-1.7-2.4-2.9-5.2-3.3-8.1h-4.3c-0.6,0-1.1-0.5-1.1-1.1v-4.6
			c0-0.6,0.5-1.1,1.1-1.1h4.2c0.5-2.9,1.6-5.7,3.3-8.1l-3-3c-0.4-0.4-0.4-1.1,0-1.5l3.2-3.2c0.4-0.4,1.1-0.4,1.5,0l3,3
			c2.4-1.7,5.2-2.9,8.1-3.3v-3.3l-5,4.5c-1.1,1-2.8,0.9-3.8-0.2l-3.9-4.4c-1.5,0.7-3,1.3-4.6,1.6l-0.4,5.9c-0.1,1.5-1.4,2.6-2.9,2.5
			l-6.9-0.4c-1.5-0.1-2.6-1.4-2.5-2.9l0.3-5.9c-1.6-0.5-3-1.3-4.4-2.1l-4.4,3.9c-1.1,1-2.8,0.9-3.8-0.2l-4.6-5.2
			c-1-1.1-0.9-2.8,0.2-3.8l4.4-3.9c-0.7-1.5-1.3-3-1.6-4.6l-5.9-0.3c-0.6,0-1.2-0.3-1.7-0.7c0.1,0.4,0.1,0.8,0.2,1.2h4.2
			c0.6,0,1.1,0.5,1.1,1.1v4.6c0,0.6-0.5,1.1-1.1,1.1h-4.2c-0.5,2.9-1.6,5.7-3.4,8.1l3,3c0.4,0.4,0.4,1.1,0,1.5l-3.2,3.2
			c-0.4,0.4-1.1,0.4-1.5,0l-3-3c-2.4,1.7-5.2,2.9-8.1,3.3v4.2c0,0.6-0.5,1.1-1.1,1.1h-4.6c-0.6,0-1.1-0.5-1.1-1.1v-4.2
			c-2.9-0.5-5.7-1.6-8.1-3.3l-3,3c-0.4,0.4-1.1,0.4-1.5,0l-3.2-3.2c-0.4-0.4-0.4-1.1,0-1.5l3-3c-1.7-2.4-2.9-5.2-3.3-8.1h-4.2
			c-0.6,0-1.1-0.5-1.1-1.1v-4.6c0-0.6,0.5-1.1,1.1-1.1h4.2c0.5-2.9,1.6-5.7,3.4-8.1l-3-3c-0.4-0.4-0.4-1.1,0-1.5l3.2-3.2
			c0.4-0.4,1.1-0.4,1.5,0l3,3c2.4-1.7,5.2-2.9,8.1-3.3v-4.2c0-0.6,0.5-1.1,1.1-1.1h4.6c0.6,0,1.1,0.5,1.1,1.1v4.2
			c2.9,0.5,5.7,1.6,8.1,3.3l3-3c0.4-0.4,1.1-0.4,1.5,0l3.2,3.2c0.2,0.2,0.3,0.5,0.3,0.8c0.5-0.7,1.4-1.1,2.3-1l5.9,0.3
			c0.5-1.6,1.3-3,2.1-4.4l-3.9-4.4c-1-1.1-0.9-2.8,0.2-3.8l5.2-4.6c1.1-1,2.8-0.9,3.8,0.2l3.9,4.4c1.5-0.7,3-1.3,4.6-1.6l0.2-3.1
			c-0.1,0.4-0.6,0.8-1,0.8h-4.7c-0.6,0-1.1-0.5-1.1-1.1v-4.3c-3-0.5-5.8-1.6-8.2-3.4l-3,3c-0.4,0.4-1.1,0.4-1.6,0l-3.3-3.3
			c-0.4-0.4-0.4-1.1,0-1.6l3-3c-1.7-2.5-2.9-5.3-3.4-8.3h-4.3c-0.6,0-1.1-0.5-1.1-1.1v-4.7c0-0.6,0.5-1.1,1.1-1.1h4.3
			c0.5-3,1.7-5.8,3.4-8.2l-3-3c-0.4-0.4-0.4-1.1,0-1.6l3.3-3.3c0.4-0.4,1.1-0.4,1.6,0l3,3c2.5-1.7,5.3-2.9,8.2-3.4v-4.3
			c0-0.6,0.5-1.1,1.1-1.1h4.7c0.6,0,1.1,0.5,1.1,1.1v4.3c1.8,0.3,3.6,0.9,5.3,1.7l-4.3-4.9c-1-1.1-0.9-2.8,0.2-3.7l4.3-3.8
			c-0.7-1.5-1.2-3-1.6-4.5l-5.8-0.3c-0.9,0-1.7-0.6-2.2-1.4c0,0.1-0.1,0.2-0.2,0.2l-4.4,3.9c-1,0.8-2.4,0.7-3.2-0.2l-3.3-3.7
			c-1.3,0.6-2.5,1.1-3.9,1.4l-0.3,4.9c-0.1,1.3-1.2,2.2-2.4,2.1l-5.9-0.3c-1.3-0.1-2.2-1.2-2.1-2.4l0.3-4.9
			c-1.3-0.5-2.6-1.1-3.7-1.8l-3.7,3.3c-1,0.8-2.4,0.8-3.2-0.2l-3.9-4.4c-0.8-1-0.7-2.4,0.2-3.2l3.7-3.3c-0.6-1.3-1.1-2.6-1.4-3.9
			l-4.9-0.3c-1.3-0.1-2.2-1.2-2.1-2.4l0.3-5.9c0.1-1.3,1.2-2.2,2.4-2.1l4.9,0.3c0.5-1.3,1.1-2.6,1.8-3.7l-3.3-3.7
			c-0.8-1-0.7-2.4,0.2-3.2l4.4-3.9c1-0.8,2.4-0.7,3.2,0.2l3.3,3.7c1.3-0.6,2.6-1.1,3.9-1.4l0.3-4.9c0.1-1.3,1.2-2.2,2.4-2.1l5.9,0.3
			c1.3,0.1,2.2,1.2,2.1,2.4l-0.3,4.9c1.3,0.5,2.6,1.1,3.7,1.8l3.7-3.3c1-0.8,2.4-0.7,3.2,0.2l3.9,4.4c0.8,1,0.7,2.4-0.2,3.2
			l-3.7,3.3c0.6,1.3,1.1,2.6,1.4,3.9l4.9,0.3c1.3,0.1,2.2,1.2,2.1,2.4l-0.3,5.9c0,0.6-0.3,1.3-0.9,1.7l3.6,0.2
			c0.5-1.5,1.3-3,2.1-4.3l-3.8-4.3c-1-1.1-0.9-2.8,0.2-3.7l5.1-4.5c1.1-1,2.8-0.9,3.7,0.2l3.8,4.3c1.5-0.7,3-1.2,4.5-1.6l0.3-5.8
			c0.1-1.5,1.4-2.6,2.8-2.5l6.8,0.4c1.5,0.1,2.6,1.4,2.5,2.8l-0.3,5.8c1.5,0.5,3,1.2,4.3,2.1l4.3-3.8c1.1-1,2.8-0.9,3.7,0.2l4.5,5.1
			c1,1.1,0.9,2.8-0.2,3.7l-4.3,3.8c0.7,1.5,1.2,3,1.6,4.5l5.7,0.3c1.5,0.1,2.6,1.4,2.5,2.8l-0.4,6.8c-0.1,1.5-1.4,2.6-2.8,2.5
			l-5.7-0.3c-0.5,1.5-1.3,3-2.1,4.3l3.8,4.3c1,1.1,0.9,2.8-0.2,3.7l-5.1,4.5c-1.1,1-2.8,0.9-3.7-0.2l-3.8-4.3
			c-1.5,0.7-3,1.2-4.5,1.6l-0.3,5.7c-0.1,1.5-1.4,2.6-2.8,2.5l-6.8-0.4c-1.5-0.1-2.6-1.4-2.5-2.8l0.3-5.7c-1.5-0.5-3-1.3-4.3-2.1
			l-2.1,1.9c0.4-0.2,1-0.2,1.4,0.1l3.3,3.3c0.4,0.4,0.4,1.1,0,1.6l-3,3c1.7,2.5,2.9,5.3,3.4,8.2h4.3c0.6,0,1.1,0.5,1.1,1.1v4.7
			c0,0.6-0.5,1.1-1.1,1.1H160c-0.5,3-1.7,5.8-3.4,8.2l3,3c0.4,0.4,0.4,1.1,0,1.6l-3.3,3.3c-0.4,0.4-1.1,0.4-1.6,0l-3-3
			c-1.6,1.1-3.3,2-5.2,2.7l7.1,0.4c1.5,0.1,2.6,1.4,2.5,2.9l-0.4,5.9c1.6,0.5,3,1.3,4.4,2.1l4.4-3.9c1.1-1,2.8-0.9,3.8,0.2l4.6,5.2
			c1,1.1,0.9,2.8-0.2,3.8l-4.4,3.9c0.7,1.5,1.3,3,1.6,4.6l5.9,0.3c1.5,0.1,2.6,1.4,2.5,2.9l-0.4,6.9c-0.1,1.5-1.4,2.6-2.9,2.5
			l-5.9-0.3c-0.5,1.6-1.3,3-2.1,4.4l3.9,4.4c0.5,0.5,0.7,1.3,0.7,2h4.6c0.6,0,1.1,0.5,1.1,1.1v4.2c2.9,0.5,5.7,1.6,8.1,3.3l3-3
			c0.4-0.4,1.1-0.4,1.5,0l3.2,3.2c0.4,0.4,0.4,1.1,0,1.5l-2.9,3c1.7,2.4,2.9,5.2,3.3,8.1h4.2c0.6,0,1.1,0.5,1.1,1.1v4.6
			c0,0.6-0.5,1.1-1.1,1.1h-4.2c-0.5,2.9-1.6,5.7-3.3,8.1l3,3c0.4,0.4,0.4,1.1,0,1.5l-3.2,3.2c-0.4,0.4-1.1,0.4-1.5,0l-3-3
			c-2.4,1.7-5.2,2.9-8.1,3.3v4.2c0,0.4-0.2,0.7-0.5,0.9h33.1l-0.5-2.9l-0.5-2.8l-0.5-2.8l-0.5-2.7l-0.5-2.7l-0.5-2.6l-0.9-4.8l0-0.3
			l-0.4-2.5l-0.4-2.5l-0.4-2.4l-0.4-2.4l-0.4-2.3l-0.4-2.3l-0.4-2.2l-0.4-2.2l-0.4-2.1l-0.4-2.1l-0.4-2l-0.3-2l-0.3-1.9l-0.3-1.9
			l-0.3-1.9l-0.3-1.8l-0.3-1.8l-0.4-2.5l-0.2-0.9l-0.3-1.6l-0.3-1.6l-0.3-1.6l-0.3-1.5l-0.2-1.5l-0.2-1.4l-0.2-1.4l-0.2-1.3
			l-0.2-1.3l-0.2-1.2l-0.2-1.2l-0.2-1.2l-0.2-1.1l-0.2-1.1l-0.2-1l-0.2-1l-0.2-0.9l-0.1-0.9l-0.1-0.8l-0.1-0.8l-0.1-0.7l-0.1-0.7
			l-0.1-0.6L194,253l-0.1-0.6l-0.1-0.5l-0.1-0.5l-0.1-0.4l0-0.4l0-0.3l0-0.3l0-0.2l0-0.2l0-0.1v0v0c26.9,3.5,45.9,28.2,42.3,55.1
			c-2.1,15.8-11.7,29.7-25.8,37.1v87.3h-79.9v-7.4c-2.1-0.8-4.1-2.1-5.7-3.7c-3.6-3.5-7.5-8.9-9.8-19.7c-2.2-10.4-3-25.7-3.3-34.7
			c-0.3-2.2-0.5-4.5-0.5-6.7c-0.2-0.5-0.2-1,0-1.5l0-0.1c0.1-4.6,0.9-9.1,2.3-13.4H124l-0.8-0.9c-1-1.1-0.9-2.8,0.2-3.8l5.2-4.6
			c1.1-1,2.8-0.9,3.8,0.2l3.9,4.4c1.5-0.7,3-1.3,4.6-1.6l0.3-5.9c0.1-1.5,1.4-2.6,2.9-2.5l6.9,0.4c1.5,0.1,2.6,1.4,2.5,2.9
			L153.3,335.9z M166.7,335.2l3.8,4.3l0.1,0.2v-3.4C169.3,336.1,167.9,335.7,166.7,335.2z M118.9,267.7l-2.8,2.9
			c0.9,1.3,1.7,2.8,2.3,4.3l0.4-6.4C118.8,268.2,118.8,267.9,118.9,267.7z M143.8,248.1l0.1-1.9c0-0.8,0.4-1.5,1.1-2
			c-0.4,0.1-0.8,0.2-1.2,0.2L143.8,248.1L143.8,248.1z M151.1,207.4c0.3,0.2,0.6,0.4,0.9,0.6l2.8-2.8l-1.7,1.6
			C152.5,207.2,151.8,207.4,151.1,207.4z M139.6,184.4l0.3-5c0-0.8,0.4-1.6,1.1-2l-2.7-0.1c-0.5,1.3-1.1,2.6-1.8,3.7L139.6,184.4z"
			/>
		<path class="st3" d="M337.6,426.7h5.3v-14.5c-6.4,2.4-13.1,3.9-19.9,4.4c-7.5,0.4-10.9-1.1-14.5-4.6c-3.6-3.5-7.5-8.9-9.8-19.7
			c-0.8-4-1.4-8.1-1.8-12.2c-7.5-4.3-10.2-13.9-5.9-21.4c1-1.8,2.4-3.4,4-4.7c-0.1-1.6-0.2-3.2-0.1-4.8c0.1-4.6,0.9-9.1,2.3-13.5
			h15.4v-24.1c0-4.6,3.8-8.3,8.4-8.3c0.2,0,0.4,0,0.6,0l42.8-0.2c2.3,0.1,4.3-1.7,4.4-4.1c0.1-2.3-1.7-4.3-4.1-4.4
			c-0.1,0-0.2,0-0.3,0l-75.5-0.4h-0.2c-4.3-0.2-7.7-3.9-7.5-8.2c0.2-4,3.3-7.2,7.3-7.5c0.1,0,0.2,0,0.2,0h29.5c0.1,0,0.3,0,0.4,0
			c3,0.7,6-1.1,6.7-4.1c0.1-0.4,0.1-0.8,0.1-1.2v-0.1l2-65.1c0.1-2.2-1.6-4.2-3.9-4.3c-2.2-0.1-4.2,1.6-4.3,3.9c0,0.1,0,0.2,0,0.4
			c0,0,0,0.1,0,0.1l-2,44.5c0,4.1-3.4,7.5-7.5,7.5s-7.5-3.4-7.5-7.5v0l0.4-16.7c0-0.8-0.3-1.5-0.8-2c-1.1-1.2-3-1.2-4.2-0.1
			c-0.5,0.5-0.8,1.2-0.9,1.9c0,4.2-3.4,7.6-7.6,7.6c-4.2,0-7.6-3.4-7.6-7.6c0,0,0-0.1,0-0.2l1.8-30.7l-8.4-0.4
			c-1.6-0.1-2.9-1.5-2.8-3.1c0.1-1.6,1.5-2.9,3.1-2.8c-1.6-0.1-2.9-1.5-2.8-3.1c0.1-1.6,1.4-2.9,3.1-2.8c-1.6-0.1-2.9-1.5-2.8-3.1
			c0.1-1.6,1.4-2.9,3-2.8l0.2-5.1c0.1-2.3-0.7-4.5-2.4-6.2c-0.4-0.3-0.7-0.6-1.1-0.9c-4.7-4.2-7.4-10.3-7.3-16.6v-0.5
			c0-0.1,0-0.2,0-0.3c0.6-12.2,10.9-21.5,23-21c12.2,0.6,21.5,10.9,20.9,23c0,0.1,0,0.2,0,0.3c0,0.1,0,0.2,0,0.3l0,0.3v0l-0.1,0.3v0
			c0,0.1,0,0.2-0.1,0.3v0c0,0.1,0,0.2,0,0.3c0,0.1,0,0.2-0.1,0.3l0,0.3v0l0,0.2v0l-0.1,0.2v0l0,0.2v0.1l-0.1,0.2l0,0.1l-0.1,0.2
			l-0.1,0.1v0v0.1v0.1l0,0.1l-0.1,0.2l-0.1,0.1l0,0.1l-0.1,0.1l0,0.1l0,0.1l-0.1,0.1l0,0.1l-0.1,0.1l0,0.1l-0.1,0.1l-0.1,0.1l0,0.1
			c-1.5,4.2-4.2,7.8-7.7,10.4c-0.4,0.3-0.8,0.5-1.2,0.8c-1.9,1.5-3,3.6-3.1,5.9l-0.2,5.1l0.5,0c1.6,0.1,2.9,1.5,2.8,3.1
			c-0.1,1.6-1.5,2.9-3.1,2.8c1.6,0.1,2.9,1.5,2.8,3.1c-0.1,1.6-1.5,2.9-3.1,2.8c1.6,0.1,2.9,1.5,2.8,3.1c-0.1,1.6-1.5,2.9-3.1,2.8
			l-8.4-0.4l-0.3,5.2l-1.5,25.5c0,2,1.7,3.7,3.7,3.7c2,0,3.7-1.7,3.7-3.7c0,0,0-0.1,0-0.2c0.3-3.8,3.6-6.6,7.4-6.3
			c3.5,0.3,6.3,3.2,6.3,6.8l-0.4,16.8c0,0.6,0.2,1.3,0.5,1.8c1,1.7,3.2,2.3,4.9,1.3c0.5-0.3,1-0.8,1.3-1.3c0.3-0.5,0.5-1.2,0.5-1.8
			v-0.1l2-44.4c-0.1-4.4,3.2-8.1,7.7-8.2c4.4-0.1,8.1,3.2,8.2,7.7c0,0.2,0,0.4,0,0.7c-1.2,21.6-1,43.5-2,65.1
			c-0.1,5.2-4.3,9.4-9.4,9.4c-0.6,0-1.3-0.1-1.9-0.2h-29.3c-2.2,0.1-3.8,2.1-3.7,4.3c0.1,2,1.8,3.6,3.8,3.7l75.5,0.4
			c4.5-0.1,8.2,3.4,8.3,7.9c0.1,4.5-3.4,8.2-7.9,8.3c-0.1,0-0.2,0-0.4,0l-42.9,0.2h-0.1c-1.3-0.1-2.5,0.3-3.4,1.2
			c-0.9,0.8-1.4,2-1.4,3.2v24.1h74.4c9.3-0.3,17.7-6,21.4-14.6c9.4-9.1,14.7-21.6,14.7-34.7c0-13.1-5.1-25.9-14.7-34.7
			c-1.3-1.2-2.2-2.8-1.7-4.6c0.5-1.7,2-3,3.8-3c-3.3-3.6-9-3.9-12.6-0.6c-1.4,1.3-2.3,2.9-2.8,4.8c-0.1,0.6-0.2,1.3-0.3,1.9
			c-7-5.1-15.7-7.5-24.4-6.5v0v0.1l0.1,0.1l0.1,0.2l0,0.2l0.1,0.3l0,0.3l0.1,0.4l0.1,0.4l0.1,0.5l0.1,0.5l0.1,0.6l0.1,0.6l0.1,0.6
			l0.2,0.7l0.1,0.7l0.2,0.8l0.1,0.8l0.2,0.9l0.1,0.9l0.2,1l0.2,1l0.2,1.1l0.2,1.1l0.2,1.2l0.2,1.2l0.2,1.2l0.2,1.3l0.2,1.3l0.2,1.4
			l0.2,1.4l0.2,1.5l0.3,1.5l0.3,1.6l0.3,1.6l0.3,1.6l0.6,3.4l0.3,1.8l0.3,1.8l0.3,1.9l0.3,1.9l0.3,1.9l0.3,2l0.4,2l0.4,2.1l0.4,2.1
			l0.4,2.2l0.4,2.2l0.4,2.3l0.4,2.3l0.4,2.4l0.4,2.4l0.4,2.5l0.4,2.5l0.2,1.4l0.7,3.8l0.5,2.6l0.5,2.7l0.5,2.7l0.5,2.8l0.5,2.8
			l0.5,2.9c3.9,10.3,3.9,21.6-0.1,31.9c-0.6,1.7-1.3,3.4-2.2,5.1l-0.1,5.5c-0.2,5.1-4.4,9.1-9.5,9c-0.6,0-1.3-0.1-1.9-0.2l-0.2,0.2
			c-1.3,1.3-2.6,2.7-4,4.2v35.3h15.4c2.9,0,5.6,0.7,8.2,2.1h-72.8c0.9-0.5,1.9-0.9,2.9-1.3l0.3-0.1l0.1,0l0.3-0.1l0.1,0l0.2,0l0.2,0
			l0.2,0c0.1,0,0.2,0,0.2,0l0.1,0l0.3,0h0.1l0.3,0h0.1l0.3,0h0.1l0.4,0h0.1l0.4,0h0.4h0.1h0.4L337.6,426.7L337.6,426.7z
			 M296.5,376.2c-0.6-6.7-0.9-13.4-1.1-18.3c-4.8,5-4.6,13,0.5,17.9C296.2,375.8,296.4,376,296.5,376.2z"/>
		<path class="st3" d="M563,396.4h15c11.5,0,22.7,3.8,31.8,10.8c-11.8,13.7-29,21.5-47,21.5h-92.1c0.1-0.1,0.1-0.2,0.2-0.3
			c0.1-0.4,0.3-0.8,0.5-1.2c0.2-0.4,0.3-0.8,0.5-1.2c0.2-0.4,0.4-0.8,0.6-1.1c0.2-0.3,0.4-0.7,0.6-1.1c0.2-0.4,0.4-0.7,0.6-1.1
			c0.2-0.4,0.4-0.7,0.6-1.1c0.2-0.3,0.4-0.7,0.7-1.1c0.2-0.3,0.5-0.7,0.7-1.1c0.2-0.3,0.5-0.7,0.7-1c0.2-0.3,0.5-0.7,0.7-1
			c0.2-0.3,0.5-0.7,0.8-1c0.2-0.3,0.5-0.7,0.8-1c0.2-0.3,0.5-0.6,0.8-1c0.3-0.3,0.5-0.6,0.8-0.9s0.6-0.6,0.9-0.9s0.6-0.6,0.9-0.9
			c0.3-0.3,0.6-0.6,0.9-0.9l0.9-0.9l0.7-0.6c-2.3-3.4-4.4-8.1-5.8-14.9c-2.2-10.4-3-25.7-3.3-34.7c-1-7.3-0.4-14.8,1.8-21.8h39.5
			c-0.3-1.6-0.5-4.3-0.4-9.1l0-2.2c0.1-5.4,0.3-13,0.2-20.3c-0.9,0-1.9,0-2.8-0.1c-3.3-0.1-6.7-0.3-9.7-0.5l0,0.6
			c-0.2,3.3-0.2,6.5-0.4,8.7c-0.3,3.9-0.9,6.2-2.2,7.8c-1.4,1.7-3.3,2.3-6.1,2.7c-3.1,0.3-6.2,0.4-9.2,0.3c-3.1,0-6.1-0.3-9.1-0.7
			c-2.9-0.5-5-1.2-6.6-2.7c-1.7-1.5-2.6-3.6-3.2-6.8c-0.8-4.6-0.8-11.8-0.8-21.7c0-1,0-2.1,0-6.5c0-9.5-0.1-19.6-0.2-29.7
			c-0.1-5.1-0.1-10.1-0.1-14.9c0-7.4-0.1-14.3,0.1-20.1c0.2-6,0.8-10.8,2-14.1c0.2-0.7,0.5-1.4,0.9-2c1.2-2.3,2.8-3.6,4.5-4.2
			c0.1,0,0.1,0,0.2,0c1.6-0.5,3.4-0.5,5,0.1c0.4,0.1,0.9,0.3,1.3,0.5c1.8,1,3,2.2,3.7,5.1c0.6,2.4,1,6.1,1.2,11.9
			c0.2,5.8,0.3,13.8,0.4,22.3c0,8.5,0,17.4,0,25v2.8c-0.1,13.4-0.1,22.3,0.9,26.8c0.4,1.8,1,2.8,2.2,3.2c1.6,0.6,4.4,0.9,8.7,1.2
			l3.2,0.2c0.2-5,0.6-10.1,1.4-13.7c0.9-3.9,2.3-6.3,3.9-7.8c1.6-1.4,3.6-2,5.7-1.8c2,0.1,3.9,0.6,5.5,2.9c1.3,1.8,2.4,5,3,10.3
			c0.3,3.1,0.5,6.9,0.6,11.1c3.1,0,6.2-0.1,9.2-0.5c3.3-0.5,5-1.4,5.8-2.9c0.9-1.7,0.9-4.5,0.9-8.4c0-1.1,0-2.3-0.1-3.5
			c0-4-0.1-8.6,0.1-13c-2.3,0.1-4.8,0.2-7.7,0.2l-3.3,0.1c-8.3,0.2-18.1,0.4-23.6-1.1c-3.5-0.9-5.4-2.5-6.6-5.4
			c-1-2.5-1.4-6-1.7-11.2c-0.5-8.4-1-21.8-1.4-33.4l-0.2-6.8c-0.4-12.1-0.7-20.7,0.4-25.3c0.7-2.9,2-4.4,3.6-5.2
			c1.5-0.8,3.1-0.7,4.6-0.5c1.3,0.1,2.6,0.5,3.8,1.1c1.4,0.7,2.4,1.8,3,3.2c1,2.4,1,5.7,0.9,15.3v2.8c0,5.7-0.1,13.4,0.2,20.9
			c0.3,7.4,1,14.5,2.4,19.2c1.3,4.3,3,6.3,4.9,7.3c1.8,1,3.6,0.8,5.1,0.6c1-0.1,1.7-0.3,1.9-1.1c0.6-1.5,0.9-4.4,0.9-9.9
			c0.2-11.1-0.5-32.3-0.9-44.5l0-1.3c-0.2-6-0.3-9.4-0.2-11.5c0.1-2.7,0.5-3.6,1.4-4.4l0.2-0.2c0.9-0.7,1.9-1.1,3-1.1
			c1.2,0,2.4,0.4,3.3,1.3c0.1,0,0.1,0.1,0.2,0.2c0.8,0.9,1.2,2.1,1.4,4.3c0.2,1.8,0.3,4.4,0.4,8.4s0.3,9.1,0.5,14.4
			c0.2,5.2,0.3,10.4,0.4,14.6l0,1.2c0.1,6.5,0.2,9.1,1.1,9.9c0.8,0.8,3.3,0.7,7.6,0.5h0.4c4.9-0.2,12.1-0.5,17.2-0.7h0.4
			c2.5-0.1,4.5-0.2,6-0.3c1.2-0.1,2-0.3,2.4-0.6c0.4-0.3,0.2-1.6-0.1-5.8l-0.1-0.9c-0.3-3.8-0.4-4.5-0.5-5.2c-0.3-3.7-0.7-8-1-11.3
			c-1.1,0.1-2.1,0.2-3.1,0.3l-0.9,0.1c-4.8,0.5-7.1,0.7-8.7-1.1c-0.8-1-1.2-2.2-1.3-3.5c-0.1-1-0.1-1.9,0-2.9
			c0.1-1.3,0.2-1.9,1.2-2.6c0.7-0.5,1.4-0.6,2.8-0.7c1.3-0.1,3.1-0.3,4.8-0.4c1.3-0.1,2.5-0.2,3.5-0.2c1.8,0,2.9,0,3.8,1.6
			c0.6,1,0.9,2.5,1.3,5.3l2.7-0.2c2.9-0.2,6-0.5,8.9-0.7l1.3-0.1c4.9-0.3,8.5-0.5,9.7-1.9c1.2-1.4,0.7-4.9-0.3-13l-0.4-3.2
			c-1.2-10-3.1-25-7-33c-1.9-3.8-4.3-6-7.1-7.1c-2.9-1.2-6.3-1.3-10.1-1.1c-5.2,0.3-11,1.5-16.5,2.5c-2.9,0.5-5.7,1.1-8.1,1.5
			c-3.2,0.5-6.4,0.8-9.7,0.8c-2.9,0-5.2-0.5-6.9-1.5c-3.9-2.2-3.6-5.3-4.3-8.5v0v0V142v-0.1v0v0v0v0v0v0v0l-0.1-0.1v0l0-0.1v-0.1
			c0,0-0.1-0.1-0.1-0.2c0,0-0.1-0.1-0.1-0.2l0-0.2c0,0-0.1-0.1-0.1-0.2l-0.1-0.2l-0.1-0.2c-0.1,0-0.1-0.1-0.1-0.2l-0.1-0.2
			c0-0.1-0.1-0.2-0.2-0.4c-0.4-0.9-1.1-1.6-2-1.9h-0.1l-27.1,1.4h-0.3c-0.6,0-1.1-0.2-1.6-0.6c-0.5-0.4-0.7-1-0.8-1.6
			c-0.1-25.3,19.2-46.5,44.5-48.7c1.2,0.3,2.1,1.2,2.6,2.4c0.2-1.1,1-2.1,2.1-2.6c24.8,0.2,45.5,19.1,48,43.7
			c0.1,1.3-0.8,2.4-2.1,2.5h-0.3l-41.8,2.2c-1.6,0-3.1-1-3.6-2.5c-0.4,1.6-1.8,2.8-3.5,2.9l-7.1,0.4c-0.2,0.1-0.4,0.3-0.7,0.5
			c-1.4,1.1-1.5,2.4-1.6,3.4v0.1v0.3v0.1v0.1v0.1v0.1v0.1v0.3c0.3,2.4,0.8,4.3,2.3,5.1c1.1,0.6,2.9,0.9,5.1,1c3.1,0,6.1-0.3,9.1-0.8
			c2.5-0.4,5.2-0.9,7.9-1.4c5.6-1.1,11.5-2.2,16.9-2.5c4.3-0.3,8.2-0.1,11.8,1.3c3.6,1.5,6.7,4.2,9.1,9c4.2,8.6,6.1,23.9,7.4,34.2
			l0.4,3.2c1.2,9.4,1.7,13.4-0.7,16.1c-2.3,2.7-6.5,2.9-12.4,3.2l-1.3,0.1c-2.6,0.2-5.7,0.4-8.8,0.7l-2.7,0.2
			c0.3,3.4,0.7,7.6,1,11.4c0.3,3.1,0.4,4.5,0.4,5.2l0.1,0.9c0.5,5.9,0.7,7.8-1.5,9.3c-1,0.7-2.3,1-4.2,1.3c-1.5,0.2-3.6,0.2-6.2,0.4
			h-0.4c-5,0.2-12.1,0.5-17.2,0.7H542c-5.4,0.2-8.5,0.4-10.5-1.6c-1.9-1.9-2-4.9-2.2-12.6l-0.1-1.2c-0.1-3.9-0.3-9.2-0.4-14.5
			c-0.1-5.3-0.3-10.4-0.5-14.4c-0.1-3.9-0.2-6.4-0.4-8.1c-0.1-1.3-0.3-1.9-0.5-2.2c-0.1-0.1-0.2-0.1-0.4-0.1c-0.2,0-0.4,0-0.6,0.2
			c-0.1,0.1-0.2,0.4-0.2,1.7c0,1.9,0.1,5.3,0.2,11.3l0.1,1.3c0.4,12.2,1.1,33.4,0.9,44.6c-0.1,6.1-0.4,9.4-1.2,11.3
			c-1.1,2.7-2.7,3.2-5,3.4c-1.9,0.2-4.7,0.3-7.3-1.1c-2.7-1.4-5.1-4.2-6.7-9.6c-1.4-5-2.2-12.5-2.5-20.1c-0.3-7.5-0.3-15.3-0.2-21.1
			v-2.8c0.1-9,0.1-12.1-0.6-13.8c-0.2-0.6-0.7-1.1-1.3-1.4c-0.8-0.4-1.6-0.6-2.5-0.7c-0.8-0.1-1.7-0.1-2.3,0.1
			c-0.6,0.3-1.2,1.1-1.5,2.7c-1,4.1-0.7,12.4-0.3,24.2l0.2,6.7c0.4,11.5,0.9,24.7,1.4,33.3c0.3,4.8,0.5,7.9,1.4,9.9
			c0.7,1.6,1.8,2.5,4,3.1c5,1.4,14.4,1.1,22.5,1l3.3-0.1c2.9,0,5.6-0.1,7.9-0.2c0.1-3.1,0.5-6.1,1.3-9c1-3.3,2.5-5.4,4.1-6.6
			c2-1.5,4.6-2,7.1-1.4c1.9,0.5,2.9,1.4,3.5,2.9c0.4,1.2,0.4,2.6,0.3,4.4c-0.1,1.9-0.6,3.9-1.3,5.7c-0.8,2.3-2.4,4.2-4.5,5.5
			c-1.8,1.1-4.1,1.7-6.8,2.1c-0.1,4.4-0.1,9.2,0,13.2c0,1.3,0,2.4,0,3.6c0.1,4.5,0,7.8-1.4,10.2c-1.4,2.7-3.9,4.2-8.6,4.9
			c-3.2,0.4-6.5,0.6-9.8,0.6c0.1,7.2-0.1,14.8-0.2,20.3l-0.1,2.2c-0.2,7.1-2.7,7.1-1.8,7.1c1.1,0,1.9,0.9,1.9,1.9h50.5l0.8-0.4
			l0.2-0.1l0.6-0.4l0.1-0.1c11.7-6.8,20.2-18.2,23.2-31.4l0-0.2c0.1-0.2,0.1-0.4,0.1-0.6c0-0.1,0.1-0.2,0.1-0.3l0.2-0.7l0.1-0.4
			l0.1-0.5c0-0.1,0.1-0.3,0.1-0.4l0.1-0.4l0.1-0.4v-0.1c0-0.1,0-0.3,0-0.5s0.1-0.2,0.1-0.2l0.1-0.8v-0.2c0.1-0.2,0.1-0.5,0.1-0.8
			v-0.2c0.6-6.6-0.2-13.4-2.3-19.7l-0.1-0.1c-0.1-0.2-0.1-0.5-0.2-0.7l-0.1-0.3c-0.1-0.1-0.1-0.2-0.1-0.3
			c-2.2-6.2-5.7-11.9-10.3-16.7l-0.2-0.2l-0.3-0.3c-0.1-0.1-0.2-0.2-0.3-0.3l-0.2-0.2c-0.2-0.2-0.4-0.3-0.5-0.5
			c-7.6-7.4-17.3-12.1-27.9-13.5v0v0v0.1l0,0.1l0.1,0.2l0,0.2l0,0.3l0.1,0.3l0.1,0.4l0.1,0.4l0.1,0.5l0.1,0.5l0.1,0.6l0.1,0.6
			l0.1,0.6l0.1,0.7l0.2,0.7l0.2,0.8l0.1,0.8l0.2,0.9l0.1,0.9l0.2,1l0.2,1l0.2,1.1l0.2,1.1l0.2,1.2l0.2,1.2l0.2,1.2l0.2,1.3l0.2,1.3
			l0.2,1.4l0.2,1.4l0.3,1.5l0.3,1.5l0.3,1.6l0.3,1.6l0.3,1.6l0.6,3.4l0.3,1.8l0.7,3.7l0.3,1.9l0.7,4l0.4,2l0.4,2.1l0.4,2.1l0.4,2.2
			l0.4,2.2l0.4,2.3l0.4,2.3l0.4,2.4l0.4,2.4l0.4,2.5l0.4,2.5l0.9,5.1l0.5,2.6l0.5,2.7l0.5,2.7l0.5,2.8l0.5,2.8l0.5,2.9
			c0.8,2.6,1.4,5.3,1.8,8c1.3,7.5,1.3,15.2,0.1,22.7c-1.2,5.6-4.5,11.3-9.8,17.2v10.6L563,396.4z M563,208.4c0.9-0.1,1.9-0.2,3-0.3
			c-0.2-2.1-0.4-3.2-0.6-3.6c-0.1-0.1-0.1,0.2-0.5,0.2c-0.8,0-2,0.1-3.4,0.2c-1.8,0.1-3.6,0.3-4.7,0.4c-0.2,0-0.3,0-0.5,0
			c0,0.7,0,1.4,0,2c0,0.4,0.1,0.9,0.3,1.3c0.3,0.3,1.9,0.1,5.4-0.2L563,208.4z M556,205.4C555.8,205.5,555.9,205.5,556,205.4
			C556,205.4,556,205.4,556,205.4z M540.5,269.9c1.6-0.2,3.2-0.7,4.6-1.5c1.4-0.9,2.4-2.1,2.9-3.6c0.5-1.5,0.9-3.1,1-4.7
			c0.2-1.3,0.2-2.1,0-2.7c-0.1-0.2-0.3-0.4-0.8-0.5c-1.3-0.3-2.7,0-3.8,0.7c-1.1,0.8-2,2.2-2.7,4.6
			C541.1,264.9,540.7,267.4,540.5,269.9z M514,302.4l2.6,0.1c-0.1-4-0.3-7.7-0.6-10.6c-0.5-4.6-1.3-7.1-2.3-8.4
			c-0.6-0.8-1.5-1.3-2.5-1.3c-1.1-0.1-2.1,0.2-3,0.9c-1.1,0.9-2,2.6-2.6,5.6c-0.7,3.4-1.1,8.3-1.3,13.2
			C507.4,302.2,510.7,302.3,514,302.4z M500.3,305.5l-3.3-0.2c-4.8-0.3-7.7-0.6-9.9-1.5c-2.6-1.1-3.8-2.8-4.5-6
			c-1.1-4.9-1.1-13.9-1-27.6v-2.8c0-7.6,0-16.5,0-24.9c-0.1-8.4-0.2-16.4-0.4-22.2c-0.2-5.6-0.5-9-1.1-11.1c-0.4-1.6-1-2.3-1.8-2.7
			c-0.2-0.1-0.5-0.2-0.7-0.3c-0.8-0.3-1.7-0.3-2.5-0.1l-0.2,0c-0.8,0.3-1.7,1-2.4,2.4c-0.2,0.5-0.5,1-0.6,1.5c-1,2.9-1.6,7.4-1.8,13
			c-0.2,5.8-0.2,12.6-0.1,19.9c0,4.9,0.1,9.9,0.1,14.9c0.1,10.8,0.2,21.6,0.2,29.7v6.5c0,9.6,0,16.6,0.7,21c0.4,2.3,1,3.7,1.9,4.6
			c0.9,0.9,2.5,1.4,4.7,1.7c2.8,0.4,5.7,0.7,8.5,0.7c2.9,0.1,5.8,0,8.7-0.3c1.8-0.2,3-0.5,3.5-1.2c0.7-0.9,1.1-2.7,1.4-5.7
			c0.2-2.4,0.3-5.4,0.4-8.5V305.5L500.3,305.5z M596.7,301c0-0.1,0-0.2,0-0.2L596.7,301z"/>
		<path class="st4" d="M281.1,389.4h50.4c9.7,0,17.4,7.8,17.4,17.5v54.9h-85.3v-54.9C263.7,397.2,271.5,389.4,281.1,389.4z"/>
		<path class="st5" d="M227,167.5c0-1.1,1-1.9,2-1.8c1.1,0,1.9,1,1.8,2l-1.8,30.7c0,2,1.6,3.7,3.7,3.7c0,0,0,0,0,0
			c2,0,3.7-1.6,3.7-3.7c0,0,0,0,0-0.1c0,0,0-0.1,0-0.2c0.3-3.8,3.6-6.6,7.4-6.3c3.5,0.3,6.3,3.2,6.3,6.8l-0.4,16.8
			c0,0.6,0.2,1.3,0.5,1.8c1,1.7,3.2,2.3,4.9,1.3c0.5-0.3,1-0.8,1.3-1.3c0.3-0.5,0.5-1.2,0.5-1.8v-0.1l2-44.4
			c-0.1-4.4,3.4-8.1,7.7-8.1c4.4-0.1,8,3.3,8.1,7.7c0,0.2,0,0.4,0,0.5c-1.2,21.5-1,43.5-2,65.1c-0.1,5.2-4.3,9.4-9.5,9.4
			c-0.6,0-1.3-0.1-1.9-0.2h-29.3c-2.2,0.1-3.8,2.1-3.7,4.3c0.1,2,1.8,3.6,3.8,3.7l75.5,0.4c4.4-0.1,8.2,3.4,8.3,7.9
			c0.1,4.5-3.4,8.2-7.9,8.3c-0.1,0-0.2,0-0.4,0l-42.9,0.2h-0.1c-1.9-0.1-3.7,0.9-4.5,2.7c-0.2,0.6-0.4,1.2-0.4,1.8v24.1
			c0,1.1-0.9,1.9-1.9,1.9c-1.1,0-1.9-0.9-1.9-1.9v-24.1c0-4.6,3.8-8.3,8.4-8.3c0.2,0,0.4,0,0.6,0l42.8-0.2c2.3,0.1,4.3-1.7,4.4-4.1
			c0.1-2.3-1.8-4.3-4.1-4.4c-0.1,0-0.2,0-0.3,0l-75.5-0.4h-0.1c-4.3-0.2-7.7-3.8-7.5-8.2c0.2-4,3.3-7.2,7.3-7.5h0.2h29.5
			c0.1,0,0.3,0,0.4,0c1.6,0.4,3.4,0,4.8-1c0.7-0.5,1.2-1.2,1.6-1.9c0.3-0.7,0.5-1.6,0.6-2.4v-0.1l2-65.1c0.1-2.2-1.6-4.2-3.9-4.3
			c-2.2-0.1-4.2,1.6-4.3,3.9c0,0.1,0,0.2,0,0.4c0,0,0,0.1,0,0.1l-2,44.5c-0.1,4.1-3.5,7.4-7.7,7.3c-4-0.1-7.2-3.3-7.3-7.3v0
			l0.4-16.7c0-1.6-1.4-3-3-2.9c-1.5,0-2.8,1.2-2.9,2.7c0.1,4.2-3.2,7.7-7.4,7.8c-4.2,0.1-7.7-3.2-7.8-7.4c0-0.1,0-0.2,0-0.4
			c0,0,0-0.1,0-0.2L227,167.5z"/>
		<path class="st4" d="M259.9,292.8v5.6c0,1-0.8,1.8-1.8,1.9h-0.3c-1-0.1-1.8-0.9-1.8-1.9v-5.6H259.9z"/>
		<path class="st4" d="M227,167.5c0-0.2,0-0.3,0.1-0.5l3.7,0.2c0,0.2,0,0.4,0,0.6l-0.3,5.2l-3.9-0.2L227,167.5z"/>
		<path class="st6" d="M274.9,389.4h50.4c9.7,0,17.4,7.8,17.4,17.5v54.9h-85.3v-54.9C257.5,397.2,265.3,389.4,274.9,389.4z"/>
		<path class="st7" d="M274.9,389.4h0.7v72.4h-6.9v-71.3C270.8,389.8,272.8,389.4,274.9,389.4z M324.8,389.4h6.9v72.4h-6.9V389.4z
			 M303.7,461.7h-6.9v-57.8h6.9V461.7z"/>
		<path class="st8" d="M316.2,341.4h-29.8v50.9c0,8.2,6.7,14.9,14.9,14.9c8.2,0,14.9-6.7,14.9-14.9L316.2,341.4L316.2,341.4z"/>
		<path class="st9" d="M316.2,341.4h-29.8v42.9c3.3-1.3,6.6-2.8,9.7-4.6c7.6-4.4,14.5-10.7,20.1-16.3V341.4z"/>
		<path class="st10" d="M341.2,220.4l-23.4-14.1c10.2-1.1,20.4,2.3,27.8,9.4L341.2,220.4z"/>
		<path class="st8" d="M334.3,298.5c1.7,5.2,2.4,10.7,2.3,16.2c-0.3,12.2-2.5,20.5-10.6,29.2c-1.7,2.2-3.6,4.2-5.7,6
			c-6.1,6.4-14.6,14.9-24.1,20.4c-9.1,5.1-19.2,8.2-29.6,9c-7.5,0.4-10.9-1.1-14.5-4.6c-3.6-3.5-7.5-8.9-9.8-19.7
			c-2.2-10.4-3-25.7-3.3-34.7c-1.1-7.3-0.4-14.8,1.8-21.8H334.3z"/>
		<path class="st8" d="M360,247.6c3.1,20.7-7.2,41.1-25.7,50.8l-16.5-92.2C339.5,209.1,356.7,226,360,247.6z"/>
		<path class="st6" d="M277.9,353.7c-0.2,6.3-5.4,11.3-11.7,11.1c-6.3-0.2-11.2-5.4-11.1-11.7L277.9,353.7z"/>
		<path class="st11" d="M248.2,324c1.7,0,2.9,1.4,2.9,3.1l-0.1,4.2c0,1.6-1.4,2.9-3.1,2.9c-1.7,0-2.9-1.4-2.9-3.1l0.1-4.1
			C245.2,325.2,246.5,323.9,248.2,324z"/>
		<path class="st11" d="M287.6,325c1.7,0,2.9,1.4,2.9,3.1l-0.1,4.1c-0.1,1.6-1.4,2.9-3.1,2.9c-1.7,0-2.9-1.4-2.9-3.1l0.1-4.1
			C284.6,326.3,285.9,325,287.6,325z"/>
		<path class="st9" d="M334.3,298.5c-11-61.5-16.5-92.2-16.5-92.2C331.7,234.9,337.5,266.8,334.3,298.5z"/>
		<path class="st11" d="M287.4,313.5c8.7,0,15.7,7,15.7,15.7c0,8.7-7,15.7-15.7,15.7c-8.4,0-15.3-6.6-15.7-15
			c-0.1-0.1-0.2-0.2-0.2-0.3c-0.3-0.4-0.7-0.8-1.1-1.1c-0.8-0.5-1.7-0.8-2.6-0.8s-1.8,0.3-2.7,0.8c-0.4,0.3-0.9,0.7-1.2,1.2
			c0,0.1-0.1,0.1-0.2,0.2c-0.4,8.6-7.7,15.3-16.3,14.9c-8.6-0.4-15.3-7.7-14.9-16.3c0.4-8.6,7.7-15.3,16.3-14.9
			c6.8,0.3,12.7,5,14.4,11.5c1.3-0.8,2.9-1.3,4.5-1.3c1.6,0,3.2,0.4,4.6,1.3C274.2,318.2,280.4,313.5,287.4,313.5z M260.8,329.6
			c-0.4-0.6-0.4-1.3-0.1-1.9c-0.9-6.9-7.2-11.8-14.1-11c-6.9,0.9-11.8,7.2-11,14.1c0.9,6.9,7.2,11.8,14.1,11
			C255.9,340.9,260.6,335.8,260.8,329.6z M274.9,327.6c0.2,0.5,0.2,1.2-0.1,1.7c0.2,7,5.9,12.5,12.8,12.4c7-0.1,12.5-5.9,12.4-12.9
			c-0.2-7-5.9-12.5-12.8-12.4C280.9,316.6,275.7,321.4,274.9,327.6z"/>
		<path class="st11" d="M324.9,345.2c1.8-4.1,0-8.9-4.1-10.7c-2.3-1.1-5.1-0.9-7.3,0.3c-6.3-11.1-9.9-23.6-10.2-36.3h31
			C340.5,314.6,336.8,332.8,324.9,345.2z"/>
		<path class="st8" d="M323.2,320.2c5.1,0.1,9.1,4.4,9,9.5l-0.3,11.3c-0.1,5.1-4.4,9.1-9.5,9c-5.1-0.1-9.2-4.4-9-9.5l0.3-11.3
			C313.8,324.1,318.1,320.1,323.2,320.2z"/>
		<path class="st11" d="M355.7,214.4c-1.3-1.2-2.2-2.8-1.7-4.6c0.5-1.7,2-3,3.8-3c-3.3-3.6-9-3.9-12.6-0.6c-1.4,1.3-2.3,2.9-2.8,4.8
			c-4,22.8-1.8,46.3,6.3,68c-4.7-1.5-9.8-0.5-13.7,2.5c-0.6,11.3-0.9,17-0.9,17c9.4-0.3,17.7-6,21.4-14.6
			c9.4-9.1,14.7-21.6,14.7-34.7C370.5,236,365.4,223.3,355.7,214.4z"/>
		<path class="st9" d="M323,328.1c2.4,0.1,4.3,2.1,4.2,4.5l-0.1,5.2c-0.1,2.4-2.1,4.3-4.5,4.2c-2.3-0.1-4.2-1.9-4.2-4.3
			c1.5,0,2.7-1.2,2.7-2.7c0-1.5-1.1-2.6-2.6-2.7C318.6,329.9,320.6,328.1,323,328.1z"/>
		<path class="st7" d="M218.9,161.3l20.7,1c1.6,0.1,2.9,1.5,2.8,3.1c-0.1,1.6-1.5,2.9-3.1,2.8l-20.7-1c-1.6-0.1-2.9-1.5-2.8-3.1
			C215.9,162.4,217.3,161.2,218.9,161.3z"/>
		<path class="st4" d="M219.2,155.4l20.7,1c1.6,0.1,2.9,1.5,2.8,3.1c-0.1,1.6-1.5,2.9-3.1,2.8l-20.7-1c-1.6-0.1-2.9-1.5-2.8-3.1
			C216.2,156.6,217.6,155.4,219.2,155.4z"/>
		<path class="st5" d="M219.5,149.6l20.7,1c1.6,0.1,2.9,1.5,2.8,3.1c-0.1,1.6-1.5,2.9-3.1,2.8l-20.7-1c-1.6-0.1-2.9-1.5-2.8-3.1
			C216.5,150.8,217.8,149.6,219.5,149.6z"/>
		<path class="st12" d="M232.1,99.1c12.1,0.6,21.5,11,20.9,23.1c-0.3,6.6-3.6,12.7-8.9,16.6c-0.4,0.3-0.8,0.5-1.2,0.8
			c-1.8,1.5-2.9,3.6-3,5.9l-0.2,5.1l-20.2-1l0.2-5.1c0.1-2.3-0.8-4.5-2.4-6.2c-0.4-0.3-0.7-0.6-1.1-0.9c-9-8.1-9.7-22.1-1.6-31.1
			C219.1,101.4,225.5,98.8,232.1,99.1z"/>
		<path class="st13" d="M232.1,99.1c12.1,0.6,21.5,11,20.9,23.1c-0.1,2.1-0.5,4.2-1.2,6.2c-7.2,10.9-21.8,13.9-32.7,6.7
			c-5-3.3-8.6-8.4-10-14.3c0-0.3,0-0.5,0-0.8C209.6,107.9,220,98.5,232.1,99.1z"/>
		<path class="st14" d="M231.6,111.6c5.8,0.3,10.2,5.2,9.9,11c-0.3,5.8-5.2,10.2-11,9.9s-10.2-5.2-9.9-11
			C221,115.8,225.9,111.3,231.6,111.6z"/>
		<path class="st6" d="M231.3,118.3c2.1,0.1,3.7,1.9,3.6,4c-0.1,2.1-1.9,3.7-4,3.6c-2.1-0.1-3.7-1.9-3.6-4
			C227.4,119.8,229.2,118.2,231.3,118.3z"/>
		<path class="st15" d="M267.3,326.8c-2.6,0-4.8,2.1-4.8,4.8v13.9c0,2.6,2.1,4.8,4.8,4.8c2.6,0,4.8-2.1,4.8-4.8v-13.9
			C272.1,328.9,269.9,326.8,267.3,326.8z"/>
		<path class="st4" d="M316.2,389.4c1,8.9-5.3,16.9-14.2,17.9c-0.2,0-0.5,0-0.7,0l8,9.9c9-3.5,13.5-13.6,10-22.7
			C318.6,392.6,317.5,390.9,316.2,389.4z"/>
		<path class="st4" d="M286.4,389.4c-1,8.8,5.3,16.8,14.2,17.9c0.2,0,0.5,0,0.7,0l-8,9.9c-9-3.5-13.5-13.6-10-22.7
			C284,392.6,285.1,390.9,286.4,389.4z"/>
		<path class="st13" d="M221.7,70.2c1.3-0.3,2.6,0.4,2.9,1.6l3.3,12.5c0.3,1.3-0.4,2.6-1.7,2.9c-1.3,0.3-2.6-0.4-2.9-1.6L220,73.1
			C219.7,71.8,220.4,70.5,221.7,70.2z"/>
		<path class="st13" d="M197.2,162.5c-1.1-0.8-1.3-2.2-0.6-3.3l7.5-10.5c0.8-1.1,2.2-1.3,3.3-0.6c1.1,0.8,1.3,2.2,0.6,3.3l-7.5,10.5
			C199.7,163,198.2,163.2,197.2,162.5z"/>
		<path class="st13" d="M273.4,153.6c-0.7,1.1-2.1,1.5-3.2,0.8l-10.9-6.9c-1.1-0.7-1.5-2.1-0.8-3.2c0.7-1.1,2.1-1.5,3.2-0.7l11,6.8
			C273.8,151,274.1,152.5,273.4,153.6z"/>
		<path class="st13" d="M187.8,92c0.6-1.1,2.1-1.5,3.2-0.9l11.2,6.5c1.1,0.7,1.5,2.1,0.9,3.2c-0.7,1.1-2.1,1.5-3.2,0.9l-11.1-6.5
			C187.5,94.6,187.1,93.2,187.8,92z"/>
		<path class="st13" d="M283.3,114.4c0.3,1.3-0.5,2.5-1.8,2.9l-12.5,2.9c-1.3,0.3-2.5-0.5-2.8-1.7c-0.3-1.3,0.5-2.5,1.8-2.9
			l12.6-2.9C281.7,112.4,283,113.1,283.3,114.4z"/>
		<path class="st13" d="M179.2,131.5c-0.3-1.3,0.4-2.6,1.6-2.9l12.5-3.3c1.3-0.3,2.6,0.4,2.9,1.6c0.3,1.3-0.4,2.6-1.6,2.9l-12.5,3.3
			C180.9,133.5,179.6,132.8,179.2,131.5C179.2,131.5,179.2,131.5,179.2,131.5z"/>
		<path class="st13" d="M262.6,79.8c1.1,0.7,1.4,2.1,0.8,3.2l-6.8,11c-0.7,1.1-2.1,1.5-3.2,0.8c-1.1-0.7-1.5-2.1-0.8-3.2l6.8-11
			C260,79.4,261.5,79.1,262.6,79.8z"/>
		<path class="st16" d="M491.5,357h58.9c28.8,0,52.3,23.6,52.3,52.4v52.4H439.1v-52.4C439.1,380.5,462.7,357,491.5,357z"/>
		<path class="st17" d="M491.5,357h40.7c28.8,0,52.3,23.6,52.3,52.4v52.4H439.1v-52.4C439.1,380.5,462.7,357,491.5,357z"/>
		<path class="st18" d="M535.4,299.7h-49v83.6c0.1,13.5,11,24.4,24.5,24.4c13.5,0,24.4-11,24.5-24.5V299.7z"/>
		<path class="st19" d="M535.4,311.7h-49v75.4c8.3-1.4,16.3-4.1,23.6-8.3c9.5-5.5,18-14.1,24.1-20.4c0.4-0.4,0.8-0.7,1.2-1.1V311.7z
			"/>
		<path class="st18" d="M543.3,298.5c1.6,5.2,2.4,10.7,2.3,16.2c-0.3,12.2-2.5,20.5-10.6,29.2c-1.8,2.2-3.6,4.2-5.7,6
			c-6.1,6.4-14.6,14.9-24.1,20.4c-9.1,5.1-19.2,8.2-29.6,9c-7.5,0.4-10.9-1.1-14.5-4.6c-3.6-3.5-7.5-8.9-9.8-19.7
			c-2.2-10.4-3-25.7-3.3-34.7c-1-7.3-0.4-14.8,1.8-21.8H543.3z"/>
		<path class="st18" d="M569,247.6c3.1,20.7-7.2,41.1-25.7,50.8l-16.5-92.2C548.5,209.1,565.7,226,569,247.6z"/>
		<path class="st11" d="M457.1,324c1.7,0,2.9,1.4,2.9,3.1l-0.1,4.1c0,1.6-1.4,2.9-3,2.9c-1.7,0-2.9-1.4-2.9-3.1l0.1-4.1
			C454.2,325.2,455.5,323.9,457.1,324z"/>
		<path class="st11" d="M496.5,325c1.7,0,2.9,1.4,2.9,3.1l-0.1,4.1c-0.1,1.6-1.4,2.9-3.1,2.9c-1.6,0-2.9-1.4-2.9-3.1l0.1-4.1
			C493.6,326.3,494.9,325,496.5,325z"/>
		<path class="st19" d="M543.3,298.5c-11-61.5-16.5-92.2-16.5-92.2C540.7,234.9,546.4,266.8,543.3,298.5z"/>
		<path class="st20" d="M477.9,345.9H494c1.3,0,2.3,1,2.3,2.3c0,1.3-1,2.3-2.3,2.3h-16.1c-1.3,0-2.3-1-2.3-2.3
			C475.7,346.9,476.7,345.9,477.9,345.9z"/>
		<path class="st20" d="M459.2,345.9h11.6c1.3,0,2.3,1,2.3,2.3c0,1.3-1,2.3-2.3,2.3h-11.6c-1.3,0-2.3-1-2.3-2.3
			C456.9,346.9,458,345.9,459.2,345.9z"/>
		<path class="st21" d="M467.1,352.2h14.3c1,0,1.8,0.8,1.8,1.8c0,1-0.8,1.8-1.8,1.8h-14.3c-1,0-1.8-0.8-1.8-1.8
			C465.3,353,466.2,352.2,467.1,352.2z"/>
		<path class="st11" d="M543.3,298.5H509c1.4,3.2,4,5.8,7.3,7.2v41.8c0.1,2.7-0.8,6.7-2.7,11.8c1.7,2.3,2.6,3.3,2.6,3.1
			c17.1-11.7,26.8-22.8,29-33.3C546.8,318.9,546.2,308.4,543.3,298.5z"/>
		<path class="st19" d="M532.1,313.7c5.1,0.1,9.1,4.4,9,9.5l-0.3,11.3c-0.1,5.1-4.4,9.1-9.5,9c-5.1-0.1-9.1-4.4-9-9.5l0.3-11.3
			C522.8,317.6,527,313.6,532.1,313.7z"/>
		<path class="st11" d="M515.2,363.4l-0.9,0.7c-0.9-1-1.7-1.9-2.4-3l0.8-0.9L515.2,363.4z"/>
		<path class="st11" d="M510.3,367.2c0.8-0.6,1.6-1.2,2.3-1.8c-1-1.2-1.8-2.3-2.6-3.3l-1.9,1.5L510.3,367.2z"/>
		<path class="st11" d="M543.3,298.5c24-12.6,33.2-42.3,20.6-66.3c-2.4-4.6-5.5-8.8-9.3-12.4c6.1,14.2,9.7,29.2,10.8,44.6
			c-7.8-2.2-16.1,0-21.7,5.8C544.4,279.6,544.2,289.1,543.3,298.5z"/>
		<path class="st22" d="M472.2,323.1c-4.1,0-7.5,3.3-7.5,7.5v10.9c0,4.1,3.3,7.5,7.5,7.5c4.1,0,7.5-3.3,7.5-7.5v-10.9
			C479.7,326.4,476.3,323.1,472.2,323.1z"/>
		<path class="st23" d="M493.2,88c0-1.1,0.9-1.9,1.9-1.9c0.9,0,1.7,0.7,1.9,1.6c0.2,1.7,0.3,3.5,0.5,5.2c0.9,0,1.7,0,2.6,0
			c2.9,0.2,4.8,1,4.4,1.9c-0.4,0.9-3.1,1.8-4.5,3c-1.4,1.1-1.5,2.4-1.6,3.4c0.3,3.1,0.6,5.5,2.4,6.5c1.1,0.6,2.8,0.9,5.1,1
			c3.1,0,6.1-0.2,9.1-0.7c2.5-0.4,5.2-0.9,7.9-1.4c5.5-1.1,11.5-2.2,16.9-2.5c4.3-0.3,8.2-0.1,11.8,1.3c3.6,1.5,6.7,4.2,9.1,9
			c4.3,8.6,6.1,23.9,7.4,34.2l0.4,3.2c1.2,9.4,1.6,13.4-0.7,16.1c-2.3,2.7-6.5,2.9-12.4,3.2l-1.3,0.1c-2.6,0.2-5.7,0.4-8.8,0.7
			l-2.7,0.2c0.3,3.4,0.7,7.6,1,11.4c0.3,3.1,0.4,4.5,0.4,5.2l0.1,0.9c0.5,5.9,0.7,7.8-1.5,9.3c-1,0.7-2.3,1-4.2,1.3
			c-1.6,0.2-3.6,0.2-6.2,0.4h-0.4c-5,0.2-12.1,0.5-17.2,0.7h-0.4c-5.4,0.2-8.5,0.4-10.5-1.6c-1.9-1.9-2-4.9-2.2-12.6l-0.1-1.2
			c-0.1-3.9-0.2-9.2-0.4-14.5c-0.2-5.3-0.3-10.4-0.5-14.4c-0.1-3.9-0.2-6.4-0.4-8.1c-0.1-1.3-0.3-1.9-0.5-2.2
			c-0.1-0.1-0.3-0.1-0.4-0.1c-0.2,0-0.4,0-0.6,0.2c-0.1,0.1-0.1,0.4-0.2,1.7c0,1.9,0.1,5.3,0.2,11.3l0,1.3
			c0.4,12.2,1.1,33.4,0.9,44.6c-0.1,6.1-0.4,9.4-1.2,11.3c-1.1,2.7-2.7,3.2-5,3.4c-1.9,0.2-4.7,0.4-7.3-1.1
			c-2.7-1.5-5.1-4.2-6.7-9.6c-1.5-5-2.2-12.5-2.5-20.1c-0.3-7.5-0.3-15.3-0.2-21.1v-2.8c0.1-9,0.1-12.1-0.6-13.8
			c-0.2-0.6-0.7-1.1-1.3-1.4c-0.8-0.4-1.6-0.6-2.5-0.7c-0.8-0.1-1.7-0.1-2.3,0.1c-0.6,0.3-1.2,1.1-1.6,2.7c-1,4.1-0.7,12.4-0.3,24.2
			l0.2,6.7c0.4,11.5,0.9,24.7,1.3,33.3c0.3,4.8,0.5,7.9,1.4,9.9c0.7,1.6,1.8,2.5,4,3.1c5,1.4,14.4,1.1,22.5,1l3.3,0
			c2.9,0,5.6-0.1,7.9-0.2c0.1-3.1,0.6-6.1,1.4-9c1-3.3,2.5-5.4,4.1-6.6c2-1.5,4.6-2,7.1-1.4c1.9,0.5,2.9,1.4,3.5,2.9
			c0.4,1.2,0.4,2.6,0.3,4.4c-0.2,1.9-0.6,3.9-1.3,5.7c-0.8,2.3-2.4,4.2-4.5,5.5c-1.8,1.1-4.1,1.7-6.8,2.1c-0.1,4.4-0.1,9.2,0,13.2
			c0,1.3,0,2.4,0,3.6c0.1,4.5,0,7.8-1.4,10.2c-1.4,2.7-3.9,4.2-8.6,4.9c-3.2,0.4-6.5,0.6-9.7,0.6c0,7.2-0.1,14.8-0.2,20.3l0,2.2
			c-0.1,7.1-2.7,7.1-1.9,7.1c1.1,0,1.9,0.9,1.9,1.9c0,1.1-0.9,1.9-1.9,1.9c-1.1,0-2.2,0-2-11.1l0-2.2c0.1-5.4,0.3-13,0.2-20.3
			c-0.9,0-1.8,0-2.8-0.1c-3.3-0.1-6.7-0.3-9.8-0.5v0.6c-0.1,3.3-0.2,6.5-0.4,8.7c-0.3,3.9-0.9,6.2-2.2,7.8c-1.4,1.7-3.3,2.3-6.1,2.7
			c-3.1,0.3-6.2,0.4-9.2,0.3c-3.1,0-6.1-0.3-9.1-0.7c-2.9-0.5-5-1.2-6.6-2.7c-1.6-1.5-2.6-3.6-3.2-6.8c-0.8-4.6-0.8-11.8-0.8-21.7
			c0-1,0-2.1,0-6.5c0-9.5-0.1-19.6-0.2-29.7c-0.1-5.1-0.1-10.1-0.2-14.9c-0.1-7.4-0.1-14.3,0.2-20.1c0.2-6,0.8-10.8,2-14.1
			c0.2-0.7,0.5-1.4,0.8-2c1.2-2.3,2.8-3.6,4.5-4.2c0.1,0,0.2,0,0.2,0c1.6-0.5,3.4-0.5,5,0.1c0.4,0.1,0.9,0.3,1.3,0.5
			c1.8,1,3,2.2,3.7,5.1c0.6,2.4,1,6.1,1.2,11.9c0.2,5.8,0.3,13.8,0.4,22.3s0.1,17.4,0,25v2.8c-0.1,13.4-0.1,22.3,0.9,26.8
			c0.4,1.8,1,2.8,2.2,3.2c1.6,0.6,4.4,0.9,8.7,1.2l3.2,0.2c0.2-5,0.6-10.1,1.4-13.7c0.9-3.9,2.3-6.3,3.9-7.8c1.6-1.4,3.6-2,5.7-1.8
			c2,0.1,3.9,0.6,5.5,2.9c1.4,1.8,2.4,5,3,10.3c0.3,3.1,0.5,6.9,0.6,11.1c3.1,0,6.2-0.1,9.2-0.5c3.3-0.5,5-1.4,5.8-2.9
			c0.9-1.7,1-4.5,0.9-8.4c0-1.1,0-2.3-0.1-3.5c-0.1-4-0.1-8.5,0.1-13c-2.3,0.1-4.9,0.2-7.7,0.2l-3.3,0c-8.3,0.2-18.1,0.4-23.6-1.1
			c-3.5-0.9-5.4-2.5-6.6-5.4c-1-2.5-1.4-6-1.7-11.2c-0.5-8.4-1-21.8-1.3-33.4l-0.2-6.7c-0.4-12.1-0.7-20.7,0.4-25.3
			c0.7-2.9,2-4.4,3.6-5.2c1.6-0.8,3.2-0.7,4.6-0.5c1.3,0.1,2.6,0.5,3.8,1.1c1.4,0.7,2.4,1.8,3,3.2c1,2.4,1,5.7,0.9,15.3v2.8
			c-0.1,5.7-0.1,13.4,0.2,20.9c0.3,7.4,1,14.5,2.4,19.2c1.3,4.3,3,6.3,4.8,7.3c1.8,1,3.6,0.8,5.1,0.6c1-0.1,1.6-0.3,1.9-1.1
			c0.6-1.5,0.9-4.4,0.9-9.9c0.1-11.1-0.5-32.3-0.9-44.5l-0.1-1.3c-0.2-6-0.3-9.4-0.2-11.5c0.1-2.7,0.5-3.6,1.4-4.4l0.2-0.2
			c0.9-0.7,1.9-1.1,3-1.1c1.2,0,2.4,0.4,3.3,1.3l0.1,0.2c0.8,0.9,1.2,2.1,1.4,4.3c0.2,1.8,0.3,4.4,0.4,8.4c0.1,4,0.3,9.1,0.5,14.4
			c0.2,5.2,0.3,10.4,0.4,14.6l0,1.2c0.1,6.5,0.2,9.1,1.1,9.9c0.8,0.8,3.3,0.7,7.6,0.5h0.4c4.9-0.2,12.1-0.5,17.2-0.7h0.4
			c2.5-0.1,4.5-0.2,6-0.3c1.2-0.1,2-0.3,2.4-0.6c0.4-0.3,0.2-1.6-0.1-5.8l-0.1-0.9c-0.3-3.8-0.4-4.5-0.5-5.2c-0.3-3.7-0.7-8-1-11.3
			c-1.1,0.1-2.1,0.2-3.1,0.3l-0.9,0.1c-4.9,0.5-7.1,0.7-8.7-1.1c-0.8-0.9-1.2-2.2-1.3-3.5c-0.1-1-0.1-1.9,0-2.9
			c0.1-1.3,0.2-1.9,1.2-2.6c0.7-0.5,1.4-0.6,2.8-0.7c1.3-0.1,3.1-0.3,4.8-0.4c1.3-0.1,2.5-0.2,3.5-0.2c1.8,0,2.9,0,3.8,1.6
			c0.6,1,0.9,2.5,1.3,5.3l2.7-0.2c2.9-0.2,6-0.5,8.9-0.7l1.3-0.1c4.9-0.3,8.5-0.5,9.7-1.9c1.2-1.4,0.7-4.9-0.2-13l-0.4-3.2
			c-1.2-10-3.1-25-7-32.9c-1.9-3.8-4.3-6-7.1-7.1c-2.9-1.2-6.3-1.3-10.1-1.1c-5.2,0.3-11.1,1.5-16.5,2.5c-2.9,0.5-5.7,1.1-8.1,1.5
			c-3.2,0.5-6.4,0.8-9.7,0.8c-2.9,0-5.2-0.5-6.9-1.5c-5.1-2.9-3.1-7.4-5.2-11.4c-0.4-0.9-1.1-1.6-2-1.9c-0.9-0.3-2.2-0.4-3-0.7
			c-0.8-0.3-1.1-1-0.9-1.6c0.2-0.6,1-1.3,3.3-1.7c0.8-0.2,1.7-0.3,2.8-0.5L493.2,88L493.2,88z M535.4,169l3-0.3
			c-0.2-2.1-0.4-3.2-0.6-3.6c-0.1-0.1-0.1,0.2-0.5,0.2c-0.8,0-2,0.1-3.4,0.2c-1.8,0.1-3.6,0.3-4.7,0.4c-0.2,0-0.3,0-0.4,0
			c0,0.7,0,1.4,0,2c0,0.4,0.1,0.9,0.3,1.3c0.3,0.3,1.9,0.1,5.4-0.2L535.4,169z M528.4,166C528.2,166.1,528.3,166.1,528.4,166
			C528.4,166,528.4,166,528.4,166z M512.9,230.5c1.6-0.2,3.2-0.7,4.6-1.5c1.4-0.9,2.4-2.1,2.9-3.6c0.5-1.5,0.9-3.1,1-4.7
			c0.1-1.3,0.1-2.1-0.1-2.7c-0.1-0.2-0.3-0.4-0.8-0.5c-1.3-0.3-2.7,0-3.8,0.7c-1.1,0.8-2,2.2-2.7,4.6
			C513.4,225.4,513,227.9,512.9,230.5z M486.4,262.9l2.6,0.1c-0.1-4-0.3-7.7-0.6-10.6c-0.5-4.6-1.3-7.1-2.3-8.4
			c-0.6-0.8-1.5-1.3-2.5-1.3c-1.1-0.1-2.1,0.2-3,0.9c-1.1,0.9-2,2.6-2.6,5.6c-0.7,3.4-1.1,8.3-1.3,13.2
			C479.8,262.7,483.1,262.8,486.4,262.9z M472.6,266.1l-3.3-0.2c-4.8-0.3-7.8-0.6-9.9-1.5c-2.6-1.1-3.8-2.8-4.5-6
			c-1.1-4.9-1.1-13.9-1-27.6v-2.8c0-7.6,0-16.5,0-24.9c-0.1-8.4-0.1-16.4-0.4-22.2c-0.2-5.6-0.5-9-1.1-11.1c-0.4-1.6-1-2.3-1.8-2.7
			c-0.2-0.1-0.5-0.2-0.7-0.3c-0.8-0.3-1.7-0.3-2.6-0.1l-0.1,0c-0.8,0.3-1.7,1-2.4,2.4c-0.2,0.5-0.5,1-0.6,1.5c-1,2.9-1.6,7.4-1.8,13
			c-0.2,5.8-0.2,12.6-0.1,19.9c0,4.9,0.1,9.9,0.1,14.9c0.1,10.8,0.2,21.6,0.2,29.7v6.5c0,9.6,0,16.6,0.7,21c0.4,2.3,1,3.7,1.9,4.6
			c0.9,0.9,2.5,1.4,4.7,1.7c2.8,0.4,5.7,0.6,8.5,0.7c2.9,0.1,5.8,0,8.7-0.3c1.8-0.2,3-0.5,3.5-1.2c0.7-0.9,1.1-2.7,1.4-5.7
			c0.2-2.4,0.3-5.4,0.4-8.5V266.1z"/>
		<path class="st24" d="M502.8,93.3c1.3,0.4,2,0.9,1.7,1.5c-0.4,0.9-3.1,1.8-4.5,3c-1.4,1.1-1.5,2.4-1.6,3.4c0.1,0.5,0.1,1,0.2,1.4
			h-3.9c-0.2-1-0.5-2-1-3c-0.4-0.9-1.1-1.6-2-1.9c-0.9-0.3-2.2-0.4-3.1-0.7c-0.8-0.3-1.1-1-0.9-1.6c0.2-0.6,1-1.3,3.3-1.7
			c0.5-0.1,1.2-0.2,1.9-0.3L502.8,93.3z"/>
		<path class="st23" d="M511,48.1c24.8,0.2,45.5,19.1,48,43.8c0.1,1.3-0.8,2.4-2.1,2.5h-0.3l-41.8,2.2c-1.6,0-3.1-1-3.6-2.5
			c-0.4,1.6-1.8,2.8-3.5,2.9l-43.2,2.2h-0.3c-0.6,0-1.1-0.2-1.6-0.6c-0.5-0.4-0.7-1-0.8-1.6c-0.1-25.3,19.2-46.5,44.5-48.7
			c1.2,0.3,2.1,1.2,2.6,2.4C509.2,49.6,510,48.6,511,48.1z"/>
		<path class="st24" d="M511,48.1c24.8,0.2,45.5,19.1,48,43.8c0.1,1.3-0.8,2.4-2.1,2.5h-0.3l-41.8,2.2c-1.6,0-3.1-1-3.6-2.5
			l-2.2-43.4C509.2,49.6,510,48.6,511,48.1z"/>
		<path class="st25" d="M481.4,70.5l7.9-0.4c1.4,0,2.5,1,2.6,2.3c0.1,1.4-1,2.5-2.3,2.6l-8,0.4c-1.4,0-2.5-1-2.6-2.3
			C479,71.8,480.1,70.6,481.4,70.5z"/>
		<path class="st25" d="M501.4,58.4l3.1-0.1c1.3,0,2.5,1,2.6,2.3c0.1,1.4-1,2.5-2.3,2.6l-3.1,0.1c-1.4,0-2.5-1-2.6-2.3
			C499,59.6,500.1,58.5,501.4,58.4z"/>
		<path class="st25" d="M468.9,87.9l8-0.4c1.4,0,2.5,1,2.6,2.3c0,1.4-1,2.5-2.3,2.6l-8,0.4c-1.4,0-2.5-1-2.6-2.3
			C466.5,89.2,467.5,88,468.9,87.9z"/>
		<path class="st25" d="M496.6,82.5l3.1-0.1c1.4,0,2.5,1,2.6,2.3c0.1,1.4-1,2.5-2.3,2.6l-3.1,0.1c-1.4,0-2.5-1-2.6-2.3
			C494.2,83.7,495.2,82.6,496.6,82.5z"/>
		<path class="st23" d="M517.6,69.3l8-0.4c1.4,0,2.5,1,2.6,2.3c0,1.4-1,2.5-2.3,2.6l-7.9,0.4c-1.4,0-2.5-1-2.6-2.3
			C515.2,70.5,516.3,69.3,517.6,69.3z"/>
		<path class="st23" d="M543.4,80.3l3.1-0.1c1.4,0,2.5,1,2.6,2.3c0,1.4-1,2.5-2.3,2.6l-3.1,0.1c-1.3,0-2.5-1-2.6-2.3
			C541,81.6,542.1,80.4,543.4,80.3z"/>
		<path class="st23" d="M529.9,58.2l8-0.4c1.4,0,2.5,1,2.6,2.3c0.1,1.4-1,2.5-2.3,2.6l-8,0.4c-1.4,0-2.5-1-2.6-2.3
			C527.5,59.5,528.6,58.3,529.9,58.2z"/>
		<path class="st23" d="M520.8,88.3l3.1-0.1c1.3,0,2.5,1,2.6,2.3c0.1,1.4-1,2.5-2.3,2.6l-3.1,0.1c-1.3,0-2.5-1-2.6-2.3
			C518.5,89.5,519.5,88.3,520.8,88.3z"/>
		<path class="st13" d="M541.1,28.1l5.6,4.7l-9.9,11l20.4-14.4l-5.8-2.6l12.8-7l-8.8-7.9L541.1,28.1z"/>
		<path class="st13" d="M454.4,50.3l-4.8,5.4l11.4,9.5L438.8,54l5.3-3.4l-13.7-5l7.5-9L454.4,50.3z"/>
		<path class="st26" d="M95.5,291.1c1.6,0.5,3,1.3,4.4,2.1l4.4-3.9c1.1-1,2.8-0.9,3.8,0.2l4.6,5.2c1,1.1,0.9,2.8-0.2,3.8l-4.4,3.9
			c0.7,1.5,1.3,3,1.6,4.6l5.9,0.3c1.5,0.1,2.6,1.4,2.5,2.9l-0.4,6.9c-0.1,1.5-1.4,2.6-2.9,2.5l-5.9-0.3c-0.5,1.6-1.3,3-2.1,4.4
			l3.9,4.4c1,1.1,0.9,2.8-0.2,3.8l-5.2,4.6c-1.1,1-2.8,0.9-3.8-0.2l-3.9-4.4c-1.5,0.7-3,1.3-4.6,1.6l-0.3,5.9
			c-0.1,1.5-1.4,2.6-2.9,2.5l-6.9-0.4c-1.5-0.1-2.6-1.4-2.5-2.9l0.3-5.9c-1.6-0.5-3-1.3-4.4-2.1l-4.4,3.9c-1.1,1-2.8,0.9-3.8-0.2
			l-4.6-5.2c-1-1.1-0.9-2.8,0.2-3.8l4.4-3.9c-0.7-1.5-1.3-3-1.6-4.6l-5.9-0.3c-1.5-0.1-2.6-1.4-2.5-2.9l0.4-6.9
			c0.1-1.5,1.4-2.6,2.9-2.5l5.9,0.3c0.5-1.6,1.3-3,2.1-4.4l-3.9-4.4c-1-1.1-0.9-2.8,0.2-3.8l5.2-4.6c1.1-1,2.8-0.9,3.8,0.2l3.9,4.4
			c1.5-0.7,3-1.3,4.6-1.6l0.3-5.9c0.1-1.5,1.4-2.6,2.9-2.5l6.9,0.4c1.5,0.1,2.6,1.4,2.5,2.9L95.5,291.1z"/>
		<path class="st27" d="M88.7,300.4c6.4,0.4,11.3,5.9,11,12.4c-0.4,6.5-5.9,11.3-12.4,11c-6.4-0.4-11.3-5.9-11-12.4
			C76.8,304.9,82.3,300,88.7,300.4z"/>
		<path class="st5" d="M88.5,304.9c3.9,0.2,6.9,3.6,6.7,7.6c-0.2,3.9-3.6,6.9-7.6,6.7c-3.9-0.2-6.9-3.6-6.7-7.6
			C81.1,307.7,84.5,304.7,88.5,304.9z"/>
		<path class="st28" d="M83.9,389.4h57.4c9.6,0,17.4,7.8,17.5,17.5v54.9H66.5v-54.9C66.5,397.2,74.3,389.4,83.9,389.4z"/>
		<path class="st29" d="M140.9,405h-56c-7.1,0-12.8-5.8-12.8-12.8v-95.5h68.8V405z"/>
		<path class="st30" d="M122.2,356H97.7v42c0,6.8,5.5,12.3,12.3,12.3c6.8,0,12.3-5.5,12.3-12.3V356z"/>
		<path class="st31" d="M122.2,348.9H97.7v35.4c2.8-1,5.4-2.3,8-3.8c6.2-3.6,11.9-8.8,16.5-13.4V348.9z"/>
		<path class="st32" d="M83.7,389.4H134c9.6,0,17.4,7.8,17.5,17.5v54.9H66.2v-22.3c-6.2-6.9-6.2-17.3,0-24.2v-8.4
			C66.3,397.2,74.1,389.4,83.7,389.4z"/>
		<path class="st30" d="M148.8,296.7c1.6,5.2,2.4,10.7,2.3,16.2c-0.3,12.2-2.5,20.5-10.6,29.2c-1.7,2.2-3.6,4.2-5.7,6
			c-6.1,6.4-14.6,14.9-24.1,20.4c-9.1,5.1-19.2,8.2-29.6,9c-7.5,0.4-10.9-1.1-14.5-4.6c-3.6-3.5-7.5-8.9-9.8-19.7
			c-2.2-10.4-3-25.7-3.3-34.7c-1-7.3-0.4-14.8,1.8-21.8H148.8z"/>
		<path class="st11" d="M177.8,245.9c3.1,20.7-7.2,41.1-25.7,50.8l-16.5-92.2C157.3,207.4,174.5,224.3,177.8,245.9z"/>
		<path class="st6" d="M92.4,349.5c-0.2,6.3-5.4,11.3-11.7,11.1c-6.3-0.2-11.2-5.4-11.1-11.7L92.4,349.5z"/>
		<path class="st11" d="M62.6,322.2c1.6,0,2.9,1.4,2.9,3.1l-0.1,4.1c0,1.6-1.4,2.9-3.1,2.9c-1.6,0-2.9-1.4-2.9-3.1l0.1-4.1
			C59.6,323.4,61,322.2,62.6,322.2z"/>
		<path class="st11" d="M102,323.3c1.6,0,2.9,1.4,2.9,3.1l-0.1,4.1c0,1.6-1.4,2.9-3.1,2.9c-1.6,0-2.9-1.4-2.9-3.1l0.1-4.1
			C99,324.5,100.4,323.3,102,323.3z"/>
		<path class="st29" d="M152.2,296.7c-11-61.5-16.5-92.2-16.5-92.2C149.6,233.1,155.3,265,152.2,296.7z"/>
		<path class="st11" d="M97,311.7c-0.4,1-1.6,1.4-2.6,1c-0.9-0.4-1.4-1.4-1-2.4c1.9-4.9,7.6-7.4,12.5-5.4c2.5,1,4.5,3,5.4,5.4
			c0.4,1,0,2.1-1,2.6c-1,0.4-2.1,0-2.6-1c0,0,0-0.1-0.1-0.2c-1.2-3-4.5-4.4-7.5-3.2C98.8,309,97.6,310.2,97,311.7z"/>
		<path class="st11" d="M56.4,311.7c-0.3,1-1.4,1.6-2.4,1.3c-1-0.3-1.6-1.4-1.3-2.4c0-0.1,0-0.1,0.1-0.2c1.9-4.9,7.6-7.4,12.5-5.4
			c2.5,1,4.5,3,5.4,5.4c0.4,1,0,2.1-1,2.6c-1,0.4-2.1,0-2.6-1c0,0,0-0.1-0.1-0.2c-1.2-3-4.5-4.4-7.5-3.2
			C58.2,309,57,310.2,56.4,311.7z"/>
		<path class="st11" d="M129.7,296.7h22.5v97.1c0,6.2-5,11.3-11.2,11.3c-6.2,0-11.2-5-11.2-11.3L129.7,296.7L129.7,296.7z"/>
		<path class="st30" d="M134.7,318.5c5.1,0.1,9.1,4.4,9,9.5l-0.3,11.3c-0.1,5.1-4.4,9.1-9.5,9c-5.1-0.1-9.1-4.4-9-9.5l0.3-11.3
			C125.4,322.3,129.6,318.3,134.7,318.5z"/>
		<path class="st11" d="M122.2,296.7h7.5v69.5c0,2-1.7,3.7-3.7,3.7s-3.7-1.6-3.7-3.7V296.7z"/>
		<path class="st31" d="M134.8,326.4c2.4,0.1,4.3,2.1,4.2,4.5l-0.1,5.2c-0.1,2.4-2.1,4.3-4.5,4.2c-2.3-0.1-4.2-1.9-4.2-4.3
			c1.5,0,2.7-1.2,2.7-2.7c0-1.5-1.1-2.6-2.6-2.7C130.5,328.2,132.5,326.3,134.8,326.4z"/>
		<path class="st30" d="M69.2,108.4c1.3,0.5,2.6,1.1,3.7,1.8l3.7-3.3c1-0.8,2.4-0.7,3.2,0.2l3.9,4.4c0.8,1,0.7,2.4-0.2,3.2l-3.7,3.3
			c0.6,1.3,1.1,2.6,1.4,3.9l4.9,0.3c1.3,0.1,2.2,1.2,2.1,2.4l-0.3,5.9c-0.1,1.3-1.2,2.2-2.4,2.1l-4.9-0.3c-0.5,1.3-1.1,2.6-1.8,3.7
			l3.3,3.7c0.8,1,0.8,2.4-0.2,3.2l-4.4,3.9c-1,0.8-2.4,0.7-3.2-0.2l-3.3-3.7c-1.3,0.6-2.6,1.1-3.9,1.4l-0.3,4.9
			c-0.1,1.3-1.2,2.2-2.4,2.1l-5.9-0.3c-1.3-0.1-2.2-1.2-2.1-2.4l0.3-4.9c-1.3-0.5-2.6-1.1-3.7-1.8l-3.7,3.3c-1,0.8-2.4,0.7-3.2-0.2
			l-3.9-4.4c-0.8-1-0.7-2.4,0.2-3.2l3.7-3.3c-0.6-1.3-1.1-2.6-1.4-3.9l-4.9-0.3c-1.3-0.1-2.2-1.2-2.1-2.4l0.3-5.9
			c0.1-1.3,1.2-2.2,2.4-2.1l4.9,0.3c0.5-1.3,1.1-2.6,1.8-3.7l-3.3-3.7c-0.8-1-0.7-2.4,0.2-3.2l4.4-3.9c1-0.8,2.4-0.7,3.2,0.2
			l3.3,3.7c1.3-0.6,2.6-1.1,3.9-1.4l0.3-4.9c0.1-1.3,1.2-2.2,2.4-2.1l5.9,0.3c1.3,0.1,2.2,1.2,2.1,2.4L69.2,108.4z"/>
		<path class="st31" d="M63.5,114.9c6.2,0.4,10.9,5.7,10.5,11.9c-0.4,6.2-5.7,10.9-11.9,10.5c-6.2-0.4-10.9-5.7-10.5-11.9
			C52.1,119.3,57.3,114.5,63.5,114.9z"/>
		<path class="st33" d="M118.5,119.3c1.5,0.5,3,1.3,4.3,2.1l4.3-3.8c1.1-1,2.8-0.9,3.7,0.2l4.5,5.1c1,1.1,0.9,2.8-0.2,3.7l-4.3,3.8
			c0.7,1.5,1.2,3,1.6,4.5l5.8,0.3c1.5,0.1,2.6,1.4,2.5,2.8l-0.4,6.8c-0.1,1.5-1.4,2.6-2.8,2.5l-5.8-0.3c-0.5,1.5-1.3,3-2.1,4.3
			l3.8,4.3c1,1.1,0.9,2.8-0.2,3.7l-5.1,4.5c-1.1,1-2.8,0.9-3.7-0.2l-3.8-4.3c-1.5,0.7-3,1.2-4.6,1.6l-0.4,5.7
			c-0.1,1.5-1.4,2.6-2.8,2.5l-6.8-0.4c-1.5-0.1-2.6-1.4-2.5-2.8l0.3-5.7c-1.5-0.5-3-1.3-4.3-2.1l-4.3,3.8c-1.1,1-2.8,0.9-3.7-0.2
			l-4.5-5.1c-1-1.1-0.9-2.8,0.2-3.7l4.3-3.8c-0.7-1.5-1.2-3-1.6-4.5l-5.7-0.3c-1.5-0.1-2.6-1.4-2.5-2.8l0.4-6.8
			c0.1-1.5,1.4-2.6,2.8-2.5l5.7,0.3c0.5-1.5,1.3-3,2.1-4.3l-3.8-4.3c-1-1.1-0.9-2.8,0.2-3.7l5.1-4.5c1.1-1,2.8-0.9,3.7,0.2l3.8,4.3
			c1.5-0.7,3-1.2,4.5-1.6l0.3-5.8c0.1-1.5,1.4-2.6,2.8-2.5l6.8,0.4c1.5,0.1,2.6,1.4,2.5,2.8L118.5,119.3z"/>
		<path class="st34" d="M111.9,128.2c6.4,0.4,11.3,5.9,11,12.3c-0.3,6.5-5.9,11.3-12.3,11c-6.4-0.3-11.3-5.9-11-12.3
			C99.9,132.7,105.5,127.8,111.9,128.2z"/>
		<path class="st35" d="M111.7,131.8c4.4,0.2,7.8,4,7.5,8.4c-0.2,4.4-4,7.8-8.4,7.5c-4.4-0.2-7.8-4-7.5-8.4
			C103.5,134.9,107.3,131.5,111.7,131.8z"/>
		<path class="st35" d="M63.1,122.9c1.8,0.1,3.2,1.6,3.1,3.4c-0.1,1.8-1.6,3.2-3.4,3.1c-1.8-0.1-3.1-1.6-3.1-3.4
			C59.7,124.1,61.3,122.8,63.1,122.9z"/>
		<path class="st15" d="M79,331.3c-2.6,0-4.8,2.1-4.8,4.8v4.1c0,2.6,2.1,4.8,4.8,4.8c2.6,0,4.8-2.1,4.8-4.8v-4.1
			C83.8,333.4,81.6,331.3,79,331.3z"/>
		<path class="st36" d="M97.4,381.9h25.4c0.7,0,1.3,0.6,1.3,1.3v4.9c0,0.7-0.6,1.3-1.3,1.3H97.4c-0.7,0-1.3-0.6-1.3-1.3v-4.9
			C96.1,382.4,96.7,381.9,97.4,381.9z"/>
		<path class="st37" d="M86,159.8c3,0.5,5.8,1.6,8.2,3.4l3-3c0.4-0.4,1.1-0.4,1.6,0l3.3,3.3c0.4,0.4,0.4,1.1,0,1.6l-3,3
			c1.7,2.5,2.9,5.3,3.4,8.2h4.3c0.6,0,1.1,0.5,1.1,1.1v4.7c0,0.6-0.5,1.1-1.1,1.1h-4.3c-0.5,3-1.7,5.8-3.4,8.2l3,3
			c0.4,0.4,0.4,1.1,0,1.6l-3.3,3.3c-0.4,0.4-1.1,0.4-1.6,0l-3-3c-2.5,1.7-5.3,2.9-8.2,3.4v4.3c0,0.6-0.5,1.1-1.1,1.1h-4.7
			c-0.6,0-1.1-0.5-1.1-1.1v-4.3c-3-0.5-5.8-1.7-8.2-3.4l-3,3c-0.4,0.4-1.1,0.4-1.6,0l-3.3-3.3c-0.4-0.4-0.4-1.1,0-1.6l3-3
			c-1.7-2.5-2.9-5.3-3.4-8.2h-4.3c-0.6,0-1.1-0.5-1.1-1.1v-4.7c0-0.6,0.5-1.1,1.1-1.1h4.3c0.5-3,1.6-5.8,3.4-8.2l-3-3
			c-0.4-0.4-0.4-1.1,0-1.6l3.3-3.3c0.4-0.4,1.1-0.4,1.6,0l3,3c2.5-1.7,5.3-2.9,8.2-3.4v-4.3c0-0.6,0.5-1.1,1.1-1.1h4.7
			c0.6,0,1.1,0.5,1.1,1.1L86,159.8z"/>
		<path class="st38" d="M82.5,197.3c9.7,0,17.5-7.9,17.5-17.6c0-9.7-7.9-17.6-17.5-17.6S65,170,65,179.7
			C65,189.4,72.8,197.3,82.5,197.3z"/>
		<path class="st2" d="M82.5,188.7c4.9,0,8.9-4,8.9-8.9c0-4.9-4-8.9-8.9-8.9s-8.9,4-8.9,8.9C73.6,184.7,77.6,188.7,82.5,188.7z"/>
		<path class="st26" d="M98.1,208c1.6,0.5,3,1.3,4.4,2.1l4.4-3.9c1.1-1,2.8-0.9,3.8,0.2l4.6,5.2c1,1.1,0.9,2.8-0.2,3.8l-4.4,3.9
			c0.7,1.5,1.2,3,1.6,4.6l5.9,0.3c1.5,0.1,2.6,1.4,2.5,2.9l-0.4,6.9c-0.1,1.5-1.4,2.6-2.9,2.5l-5.9-0.3c-0.5,1.6-1.3,3-2.1,4.4
			l3.9,4.4c1,1.1,0.9,2.8-0.2,3.8l-5.2,4.6c-1.1,1-2.8,0.9-3.8-0.2l-3.9-4.4c-1.5,0.7-3,1.3-4.6,1.6l-0.3,5.9
			c-0.1,1.5-1.4,2.6-2.9,2.5l-6.9-0.4c-1.5-0.1-2.6-1.4-2.5-2.9l0.3-5.9c-1.6-0.5-3-1.3-4.4-2.1l-4.4,3.9c-1.1,1-2.8,0.9-3.8-0.2
			l-4.6-5.2c-1-1.1-0.9-2.8,0.2-3.8l4.4-3.9c-0.7-1.5-1.2-3-1.6-4.6l-5.9-0.3c-1.5-0.1-2.6-1.4-2.5-2.9l0.4-6.9
			c0.1-1.5,1.4-2.6,2.9-2.5l5.9,0.3c0.5-1.6,1.3-3,2.1-4.4l-3.9-4.4c-1-1.1-0.9-2.8,0.2-3.8l5.2-4.6c1.1-1,2.8-0.9,3.8,0.2l3.9,4.4
			c1.5-0.7,3-1.3,4.6-1.6l0.3-5.9c0.1-1.5,1.4-2.6,2.9-2.5l6.9,0.4c1.5,0.1,2.6,1.4,2.5,2.9L98.1,208z"/>
		<path class="st39" d="M91.3,217.2c6.4,0.4,11.3,5.9,11,12.4c-0.4,6.5-5.9,11.3-12.4,11c-6.4-0.4-11.3-5.9-11-12.4
			C79.3,221.8,84.9,216.8,91.3,217.2z"/>
		<path class="st35" d="M91.1,221.7c3.9,0.2,6.9,3.6,6.7,7.6c-0.2,3.9-3.6,6.9-7.6,6.7c-3.9-0.2-6.9-3.6-6.7-7.6
			C83.7,224.5,87.1,221.5,91.1,221.7z"/>
		<path class="st30" d="M45.5,217.7c2.9,0.5,5.7,1.6,8.1,3.3l3-3c0.4-0.4,1.1-0.4,1.5,0l3.2,3.2c0.4,0.4,0.4,1.1,0,1.5l-3,3
			c1.7,2.4,2.9,5.2,3.3,8.1h4.2c0.6,0,1.1,0.5,1.1,1.1v4.6c0,0.6-0.5,1.1-1.1,1.1h-4.2c-0.5,2.9-1.6,5.7-3.3,8.1l3,3
			c0.4,0.4,0.4,1.1,0,1.5l-3.2,3.2c-0.4,0.4-1.1,0.4-1.5,0l-3-3c-2.4,1.7-5.2,2.9-8.1,3.3v4.2c0,0.6-0.5,1.1-1.1,1.1h-4.6
			c-0.6,0-1.1-0.5-1.1-1.1v-4.2c-2.9-0.5-5.7-1.6-8.1-3.3l-3,3c-0.4,0.4-1.1,0.4-1.5,0l-3.2-3.2c-0.4-0.4-0.4-1.1,0-1.5l3-3
			c-1.7-2.4-2.9-5.2-3.3-8.1h-4.3c-0.6,0-1.1-0.5-1.1-1.1v-4.6c0-0.6,0.5-1.1,1.1-1.1h4.2c0.5-2.9,1.6-5.7,3.3-8.1l-3-3
			c-0.4-0.4-0.4-1.1,0-1.5l3.2-3.2c0.4-0.4,1.1-0.4,1.5,0l3,3c2.4-1.7,5.2-2.9,8.1-3.3v-4.2c0-0.6,0.5-1.1,1.1-1.1h4.6
			c0.6,0,1.1,0.5,1.1,1.1L45.5,217.7L45.5,217.7z"/>
		<path class="st31" d="M42.1,243.2c3.3,0,6-2.7,6-6c0-3.3-2.7-6-6-6c-3.3,0-6,2.7-6,6C36.2,240.6,38.8,243.2,42.1,243.2z"/>
		<path class="st35" d="M42.1,239.6c1.3,0,2.3-1,2.3-2.3c0-1.3-1-2.3-2.3-2.3c-1.3,0-2.3,1-2.3,2.3
			C39.8,238.5,40.8,239.6,42.1,239.6z"/>
		<path class="st33" d="M119.6,252.4c2.9,0.5,5.7,1.6,8.1,3.3l3-3c0.4-0.4,1.1-0.4,1.5,0l3.2,3.2c0.4,0.4,0.4,1.1,0,1.5l-3,3
			c1.7,2.4,2.9,5.2,3.3,8.1h4.2c0.6,0,1.1,0.5,1.1,1.1v4.6c0,0.6-0.5,1.1-1.1,1.1h-4.2c-0.5,2.9-1.6,5.7-3.3,8.1l3,3
			c0.4,0.4,0.4,1.1,0,1.5l-3.2,3.2c-0.4,0.4-1.1,0.4-1.5,0l-3-3c-2.4,1.7-5.2,2.9-8.1,3.3v4.2c0,0.6-0.5,1.1-1.1,1.1H114
			c-0.6,0-1.1-0.5-1.1-1.1v-4.2c-2.9-0.5-5.7-1.6-8.1-3.3l-3,3c-0.4,0.4-1.1,0.4-1.5,0l-3.2-3.2c-0.4-0.4-0.4-1.1,0-1.5l3-3
			c-1.7-2.4-2.9-5.2-3.3-8.1h-4.2c-0.6,0-1.1-0.5-1.1-1.1v-4.6c0-0.6,0.5-1.1,1.1-1.1h4.2c0.5-2.9,1.6-5.7,3.3-8.1l-3-3
			c-0.4-0.4-0.4-1.1,0-1.5l3.2-3.2c0.4-0.4,1.1-0.4,1.5,0l3,3c2.4-1.7,5.2-2.9,8.1-3.3v-4.2c0-0.6,0.5-1.1,1.1-1.1h4.6
			c0.6,0,1.1,0.5,1.1,1.1L119.6,252.4z"/>
		<path class="st40" d="M116.2,289.4c9.6,0,17.4-7.8,17.4-17.4c0-9.6-7.8-17.4-17.4-17.4c-9.6,0-17.4,7.8-17.4,17.4
			C98.9,281.6,106.6,289.4,116.2,289.4z"/>
		<path class="st2" d="M116.2,280.1c4.5,0,8.1-3.6,8.1-8.1c0-4.5-3.6-8.1-8.1-8.1c-4.5,0-8.1,3.6-8.1,8.1
			C108.1,276.5,111.8,280.1,116.2,280.1z"/>
	</g>
</g>
</svg>
