<svg width="135" height="78" viewBox="0 0 135 78" fill="none" xmlns="http://www.w3.org/2000/svg">
<path d="M29.0125 59.3465V46.615C29.0125 43.8674 27.5993 42.485 24.79 42.485H16.7026V59.3465H8.56415V35.0953H24.9943C28.9955 35.0953 32.0261 36.1022 34.0522 38.0989C36.0954 40.1128 37.0999 42.9629 37.0999 46.6492V59.3295H29.0125V59.3465Z" fill="black"/>
<path d="M49.6652 35.0953H41.5778V59.3465H49.6652V35.0953Z" fill="black"/>
<path d="M54.4666 59.3465V34.2249C54.4666 31.3748 55.2157 29.1733 56.697 27.6373C58.1782 26.1013 60.3746 25.3333 63.2861 25.3333H72.395V31.7503H65.4143C64.4439 31.7503 63.7117 32.0063 63.235 32.5353C62.7583 33.0473 62.5029 33.9177 62.5029 35.1123H72.5313V41.8194H62.5029V59.3636H54.4666V59.3465Z" fill="black"/>
<path d="M84.1771 59.3465C81.2315 59.3465 79.0352 58.5786 77.5539 57.0426C76.0897 55.5066 75.3405 53.3051 75.3405 50.455V28.2005H83.3939V35.0953H93.0817V41.8024H83.3939V49.8235C83.3939 51.735 84.3473 52.6907 86.2543 52.6907H92.8434V59.3465H84.1771Z" fill="black"/>
<path d="M100.556 67.7944V60.7972H103.127C104.166 60.7972 104.966 60.5924 105.545 60.1657C106.124 59.739 106.6 59.2271 106.958 58.6127L95.3292 35.0953H103.519L110.687 50.6427L118.059 35.0953H126.3L112.866 61.7187C112.355 62.7598 111.81 63.6472 111.249 64.4152C110.687 65.1832 110.04 65.8147 109.342 66.3096C108.627 66.8045 107.826 67.18 106.941 67.4189C106.056 67.6578 105.034 67.7773 103.859 67.7773H100.556V67.7944Z" fill="black"/>
<path d="M46.311 9.35925L40.5902 23.8998L46.311 22.7904L45.2554 32.723L52.219 18.4215L46.8388 19.343L46.311 9.35925Z" fill="#E0E00E"/>
</svg>
