<svg width="47" height="47" viewBox="0 0 47 47" fill="none" xmlns="http://www.w3.org/2000/svg">
<g clip-path="url(#clip0_11:26757)">
<path d="M23.5 0C18.8521 0 14.3086 1.37825 10.444 3.96046C6.57949 6.54268 3.56744 10.2129 1.78878 14.5069C0.0101211 18.801 -0.455257 23.5261 0.451495 28.0846C1.35825 32.6432 3.59641 36.8305 6.88294 40.117C10.1695 43.4035 14.3568 45.6417 18.9153 46.5485C23.4739 47.4552 28.1989 46.9898 32.493 45.2112C36.7871 43.4325 40.4573 40.4205 43.0395 36.5559C45.6217 32.6913 47 28.1479 47 23.5C47 17.2674 44.5241 11.2901 40.117 6.88299C35.7099 2.47589 29.7325 0 23.5 0V0ZM17.8876 14.5145L18.1532 14.5571C18.3665 15.0709 18.5952 15.5788 18.7872 16.108C19.3261 17.5814 19.7875 19.0702 19.7565 20.6696C19.7216 22.0615 19.014 23.1898 18.3277 24.322C18.2656 24.3935 18.1891 24.4511 18.1033 24.4912C18.0175 24.5313 17.9242 24.5529 17.8295 24.5546C15.918 24.5701 14.0065 24.5643 12.095 24.5546C11.9199 24.5205 11.7494 24.4658 11.5871 24.3918L17.8876 14.5145ZM37.933 28.1508C36.797 28.618 35.975 29.471 35.3294 30.5256C34.6606 31.617 33.9453 32.6852 33.1756 33.7069C32.2567 34.9301 31.0082 35.4884 29.4457 35.4729C25.5995 35.4342 21.7533 35.4729 17.907 35.4536C13.8689 35.4284 10.6953 32.7492 10.0168 28.8487L10.0052 28.7847C9.77255 27.352 9.84622 27.2648 11.2905 27.2629C12.9635 27.2629 14.6385 27.2745 16.3115 27.2629C16.8175 27.2629 17.087 27.3617 17.149 27.9627C17.2808 29.2771 18.2463 30.1204 19.5626 30.1514C20.4738 30.1747 21.3868 30.1514 22.2999 30.163C22.7807 30.1747 22.9649 29.9692 22.961 29.5078C22.9455 27.0613 23.2072 27.5692 21.1077 27.5071C20.782 27.4974 20.4544 27.5246 20.1384 27.4974C19.9331 27.4649 19.7313 27.4137 19.5355 27.3443C19.58 27.1443 19.6449 26.9494 19.7293 26.7627C20.2237 25.8961 20.751 25.0451 21.2434 24.1766C22.4608 22.0266 22.4725 19.7468 21.7513 17.4806C21.1697 15.668 20.3788 13.9213 19.6789 12.1474C19.6149 11.9865 19.5277 11.8353 19.4618 11.6744C19.4495 11.572 19.4495 11.4685 19.4618 11.3662C20.4427 11.6259 21.3481 11.845 22.2379 12.1145C22.7962 12.2831 23.0134 12.1145 22.9785 11.5484C22.9649 11.266 22.9688 10.9831 22.9901 10.7012C23.0444 9.96647 23.5445 9.46242 24.2269 9.43334C24.5577 9.42289 24.8797 9.5404 25.126 9.76139C25.3722 9.98239 25.5238 10.2899 25.5491 10.6198C25.5924 11.1835 25.6008 11.7494 25.5743 12.3141C25.5602 12.5044 25.5978 12.6949 25.6831 12.8655C25.7685 13.0362 25.8983 13.1806 26.0589 13.2835C27.9161 14.7083 29.562 16.3387 30.7465 18.3878C31.8748 20.3381 31.9252 22.2787 30.605 24.1456C29.942 25.0819 29.1607 25.9349 28.4396 26.8306C27.953 27.4335 27.3113 27.544 26.5765 27.5149C25.5878 27.4781 25.5743 27.5149 25.584 28.4668C25.6014 30.4364 25.3436 30.0642 27.2783 30.1766C28.6586 30.2561 29.7443 29.8296 30.605 28.7731C31.098 28.1918 31.7682 27.7886 32.5126 27.6254C34.3601 27.1369 36.196 26.5727 38.0261 26.0454C38.7453 25.8399 38.7705 25.8961 38.8345 26.6464C38.8984 27.3966 38.6697 27.8483 37.933 28.1508V28.1508Z" fill="black"/>
</g>
<defs>
<clipPath id="clip0_11:26757">
<rect width="47" height="47" fill="white"/>
</clipPath>
</defs>
</svg>
