<svg width="62" height="43" viewBox="0 0 62 43" fill="none" xmlns="http://www.w3.org/2000/svg">
<g clip-path="url(#clip0_2:21)">
<path d="M43.263 -2.01293e-06C43.1304 0.847721 42.6443 1.41774 41.9373 1.88545C42.1288 1.82699 42.3055 1.78314 42.497 1.72468C43.3661 1.49082 44.2205 1.25697 45.0896 1.03773C45.2074 1.0085 45.3253 0.99388 45.4578 0.979264C45.7377 0.964648 46.0323 1.03773 46.106 1.33005C46.1502 1.5639 46.0912 1.79775 45.9439 1.97315C45.6935 2.25085 45.3989 2.45547 45.0601 2.60163C44.1174 2.96703 43.1452 3.27396 42.1877 3.59551C41.952 3.65397 41.7458 3.75629 41.5543 3.90245C41.7016 3.94629 41.8342 3.97552 41.9815 3.99014C44.957 4.16553 47.4906 5.3348 49.6412 7.33718C51.1732 8.76954 52.4253 10.465 53.3533 12.3358C53.8247 13.2274 54.1487 14.2067 54.296 15.2005C54.355 15.7121 54.6201 15.9606 55.1357 16.0629C57.139 16.4721 59.1276 16.516 61.1309 16.019C61.2929 15.9752 61.4844 15.9606 61.779 15.9167C61.072 16.9106 60.3649 17.7291 59.3044 18.153C58.2732 18.5914 57.1832 18.8838 56.0784 19.0445C55.8869 19.0884 55.7101 19.1322 55.5334 19.2053C57.7135 20.0238 59.8641 19.863 62 19.9361C61.5434 20.4477 61.0131 20.8861 60.4239 21.2515C59.0392 22.1723 57.3894 22.6108 55.7249 22.5377C55.6218 22.5377 55.5187 22.5377 55.4155 22.5377C54.679 22.5377 54.6938 22.5377 54.5023 23.2247C53.8541 25.7386 52.7788 28.121 51.3205 30.2549C50.1126 31.9796 48.6985 33.5581 47.1076 34.932C44.6919 37.0659 41.952 38.8491 39.0207 40.1937C36.4871 41.3776 33.7914 42.1523 31.0074 42.5031C29.4607 42.6931 27.8845 42.7661 26.3231 42.8685C25.3951 42.9269 24.4524 43.0146 23.5244 42.9708C21.9482 42.8831 20.3573 42.7369 18.7959 42.5323C15.7467 42.1377 12.9038 41.1145 10.1787 39.7406C7.80708 38.5568 5.61226 37.0806 3.62366 35.3413C2.35685 34.2158 1.19316 32.9735 0.147303 31.6288C0.088382 31.5411 0.044191 31.4534 0 31.3657C3.49109 33.9966 7.30625 35.2389 11.578 35.0636C15.894 34.8882 19.503 33.105 22.6405 30.1234C22.5227 30.0942 22.4048 30.0795 22.2723 30.0649C21.0938 30.2549 20.048 29.9041 19.1347 29.2026C18.2214 28.501 17.8974 27.3171 18.4424 26.4548C18.7223 26.0017 19.1789 25.6655 19.5914 25.3001C19.8418 25.0955 20.1069 24.9201 20.3868 24.7447C20.2395 24.7301 20.0922 24.7155 19.9596 24.7155C18.8254 24.9494 17.7648 24.7155 16.7631 24.2332C15.8057 23.7801 14.8482 23.327 14.1264 22.5231C13.8907 22.26 13.6698 21.9677 13.493 21.6462C13.11 20.93 13.1395 20.8569 13.7729 20.3307C14.5683 19.673 15.4669 19.293 16.5274 19.3661C16.7042 19.3807 16.8662 19.3515 17.1461 19.3368C16.2034 18.913 15.349 18.5476 14.5094 18.1383C13.2131 17.4952 12.0789 16.5598 11.2098 15.4052C10.8268 14.879 10.5617 14.2797 10.4438 13.6366C10.3407 13.1835 10.3996 13.052 10.871 12.9351C11.5486 12.7743 12.2262 12.672 12.9038 12.5843C13.1837 12.5404 13.4635 12.5843 13.7876 12.5258C12.4177 11.6489 11.1214 10.7281 10.2965 9.32495C9.48634 7.96567 8.80874 6.56254 8.95605 4.82325C9.33904 4.94017 9.63364 4.99864 9.91352 5.10095C14.0233 6.7087 18.133 8.33106 22.0661 10.3627C24.364 11.5466 26.603 12.8474 28.6063 14.4697C28.9746 14.7767 29.3134 15.1128 29.7406 15.5075C29.8584 15.2882 29.9468 15.1421 30.0057 14.9959C30.9337 12.6428 31.9206 10.3188 33.1138 8.08259C34.3953 5.7002 35.8684 3.46397 37.9159 1.6516C38.2842 1.31543 38.7113 1.03773 39.1238 0.716177C39.4184 1.16927 39.0501 1.46159 39.0059 1.85622C39.5068 1.78314 39.8014 1.41774 40.1844 1.1985C40.5968 0.964648 40.9651 0.67233 41.3775 0.467707C41.8047 0.2777 42.2466 0.116925 42.6885 -0.0146179L43.263 -2.01293e-06Z" fill="black"/>
</g>
<defs>
<clipPath id="clip0_2:21">
<rect width="62" height="43" fill="white"/>
</clipPath>
</defs>
</svg>
